<svg width="51" height="51" viewBox="0 0 51 51" fill="none" xmlns="http://www.w3.org/2000/svg">
<g clip-path="url(#clip0)">
<path d="M49.0025 40.3749H43.2693C45.4179 39.4495 47.2435 37.9071 48.5146 35.943C48.7855 35.4924 48.8201 34.9381 48.6073 34.4572C48.5512 34.3297 48.4815 34.1767 48.4033 34.0101C49.4121 32.5528 50.1639 30.9333 50.626 29.2221C51.0164 27.3677 51.106 25.4626 50.8912 23.5798C50.8038 22.7825 50.2646 22.107 49.5066 21.845C48.6447 17.7089 47.4844 17.0484 47.0917 16.83C46.5927 16.544 45.9905 16.5014 45.4563 16.7144C43.3517 17.5159 43.3441 19.397 43.3373 21.0553C43.3373 21.4523 43.3245 21.8577 43.299 22.2623C42.4824 22.4529 41.8233 23.0537 41.5582 23.8493C41.3886 24.3449 41.153 24.8155 40.8578 25.2484C40.507 25.0616 40.1457 24.8953 39.7758 24.7502C39.4239 24.6199 39.0368 24.6214 38.6861 24.7545L34.3213 26.4222C33.9786 26.5549 33.6928 26.8029 33.513 27.1234C33.3109 27.4921 33.129 27.8715 32.9681 28.2599C32.7405 28.1903 32.5174 28.1068 32.3 28.01V18.275C32.3 17.3361 31.5389 16.575 30.6 16.575H10.2C9.26112 16.575 8.5 17.3361 8.5 18.275V19.4327C7.71447 19.2284 6.90614 19.125 6.0945 19.125C0 19.125 0 25.8229 0 28.0244C0 32.9451 2.3919 36.1249 6.0945 36.1249C7.07535 36.1196 8.05084 35.98 8.99385 35.7101C9.62138 37.5963 10.8376 39.2314 12.4636 40.3749H5.3975C4.90667 40.3332 4.4195 40.4893 4.04436 40.8085C3.66922 41.1278 3.43723 41.5838 3.4 42.0749V43.7749C3.4 45.6815 5.2853 47.1749 7.6925 47.1749H46.7075C49.1147 47.1749 51 45.6815 51 43.7749V42.0749C50.9628 41.5838 50.7308 41.1278 50.3556 40.8085C49.9805 40.4893 49.4933 40.3332 49.0025 40.3749ZM46.0598 18.2971C46.1234 18.2628 46.2007 18.2668 46.2604 18.3073C46.4058 18.388 47.1036 18.9244 47.7454 21.7387C47.0305 21.7685 46.104 21.8313 45.0254 21.9707C45.0364 21.6537 45.039 21.3443 45.0398 21.0561C45.0441 19.295 45.1299 18.6515 46.0598 18.2971ZM43.18 24.3643C43.2666 24.1114 43.4856 23.9268 43.7495 23.8841C43.9068 23.8518 44.0623 23.8289 44.2349 23.7991C45.7191 23.5483 47.221 23.4167 48.7263 23.4055H48.7824C48.9899 23.3914 49.1734 23.5396 49.2031 23.7456C49.399 25.4374 49.3226 27.1498 48.977 28.8175C48.6561 30.0303 48.1586 31.1894 47.5006 32.2574C46.2134 29.8788 44.4446 27.7945 42.3071 26.1374C42.6747 25.5873 42.9682 24.9912 43.18 24.3643ZM34.9775 27.9862L39.2386 26.3584C43.7886 28.1477 46.5486 33.9846 47.0586 35.0794C46.5885 35.892 45.0755 37.9431 41.1859 39.4272C39.8518 39.9523 38.4458 40.2718 37.0158 40.3749H35.8947C35.3014 40.3477 34.7143 40.2419 34.1488 40.0604C34.1003 39.8522 34.0349 39.5666 33.9694 39.2232C33.5648 37.1177 32.8585 31.8265 34.9741 27.9862H34.9775ZM29.8002 39.0634C30.6382 39.4701 31.5098 39.8034 32.4054 40.0596C32.4309 40.1786 32.4547 40.2797 32.476 40.3749H28.305C28.8484 39.992 29.3496 39.5523 29.8002 39.0634ZM32.0722 38.1649C30.9281 37.7867 29.8516 37.2286 28.883 36.5117C27.6158 35.4511 26.5372 34.1837 25.693 32.7632C25.592 32.5461 25.6556 32.288 25.846 32.1427C25.857 32.1325 25.8681 32.1223 25.8774 32.1121C27.0493 31.1024 28.2971 30.1843 29.6098 29.3657C29.7449 29.2807 29.8801 29.1898 30.0441 29.0946C30.2421 28.9658 30.496 28.9602 30.6995 29.0801C31.2316 29.4175 31.808 29.6792 32.4122 29.8579C31.7487 32.5769 31.6331 35.4008 32.0722 38.1649ZM24.7146 26.5437C24.7413 26.4538 24.8106 26.3829 24.8999 26.3542C25.8009 26.0142 26.2132 26.4205 27.2629 27.766C27.4431 27.9964 27.6361 28.2429 27.8435 28.4902C26.917 29.1116 26.1545 29.6879 25.5782 30.152C24.6942 28.1817 24.5361 27.0044 24.7146 26.5437ZM8.5 30.492C7.74291 30.8319 6.92429 31.0132 6.0945 31.0249C5.4485 31.0249 5.1 29.4788 5.1 28.0244C5.1 24.2249 5.6746 24.2249 6.0945 24.2249C6.96476 24.1895 7.81869 24.4686 8.5 25.0112V30.492ZM1.7 28.027C1.7 24.6729 2.1998 20.825 6.0945 20.825C6.91119 20.8209 7.72328 20.9474 8.5 21.1998V23.0265C7.74438 22.6857 6.92333 22.5146 6.0945 22.525C3.6057 22.525 3.4 25.1268 3.4 28.0244C3.4 30.968 4.40725 32.7249 6.0945 32.7249C6.91425 32.7165 7.727 32.5729 8.5 32.2999V32.7249C8.50361 33.1692 8.5394 33.6127 8.6071 34.0518C7.79108 34.2928 6.94534 34.4184 6.0945 34.4249C3.34305 34.4249 1.7 32.0322 1.7 28.0244V28.027ZM10.3981 34.4453C10.2656 33.8815 10.1992 33.3041 10.2 32.7249L10.2 18.275H30.6V27.3232C30.1546 27.2817 29.7067 27.3703 29.3106 27.5782C29.0649 27.2977 28.8286 27.0087 28.6034 26.7197C27.6403 25.4855 26.4444 23.9461 24.2956 24.7647C23.7569 24.9637 23.3316 25.3872 23.1302 25.9249C22.6874 27.0665 23.0733 28.8651 24.2854 31.3913C23.8411 32.0774 23.8263 32.9567 24.2471 33.6574C25.1985 35.2506 26.4141 36.6702 27.8418 37.8555C27.9905 37.9703 28.1444 38.0748 28.2982 38.1802C26.875 39.589 24.9525 40.3779 22.95 40.3749H17.85C14.2823 40.3896 11.1837 37.9229 10.3981 34.4428V34.4453ZM49.3 43.7749C49.3 44.6963 48.11 45.4749 46.7075 45.4749H7.6925C6.29 45.4749 5.1 44.6963 5.1 43.7749V42.1523C5.18963 42.0984 5.29295 42.0715 5.3975 42.0749H49.0025C49.1071 42.0715 49.2104 42.0984 49.3 42.1523V43.7749Z" fill="#352F55"/>
<path d="M18.7001 13.175C18.7001 13.6444 19.0806 14.025 19.5501 14.025C20.0195 14.025 20.4001 13.6444 20.4001 13.175C20.3944 12.5753 20.6343 11.9995 21.0639 11.5812C22.4455 10.0798 22.4455 7.77007 21.0639 6.2687C20.6343 5.8504 20.3944 5.27456 20.4001 4.67495C20.4001 4.20551 20.0195 3.82495 19.5501 3.82495C19.0806 3.82495 18.7001 4.20551 18.7001 4.67495C18.6926 5.66038 19.0634 6.61113 19.7362 7.3312C20.1611 7.7527 20.4001 8.32644 20.4001 8.92495C20.4001 9.52347 20.1611 10.0972 19.7362 10.5187C19.0634 11.2388 18.6926 12.1895 18.7001 13.175Z" fill="#352F55"/>
<path d="M13.6 13.175C13.6 13.6444 13.9805 14.025 14.45 14.025C14.9194 14.025 15.3 13.6444 15.3 13.175C15.2943 12.5753 15.5342 11.9995 15.9638 11.5812C17.3454 10.0798 17.3454 7.77007 15.9638 6.2687C15.5342 5.8504 15.2943 5.27456 15.3 4.67495C15.3 4.20551 14.9194 3.82495 14.45 3.82495C13.9805 3.82495 13.6 4.20551 13.6 4.67495C13.5925 5.66038 13.9633 6.61113 14.6361 7.3312C15.061 7.7527 15.3 8.32644 15.3 8.92495C15.3 9.52347 15.061 10.0972 14.6361 10.5187C13.9633 11.2388 13.5925 12.1895 13.6 13.175Z" fill="#352F55"/>
<path d="M23.8 13.175C23.8 13.6444 24.1806 14.025 24.65 14.025C25.1195 14.025 25.5 13.6444 25.5 13.175C25.4944 12.5753 25.7342 11.9995 26.1639 11.5812C27.5455 10.0798 27.5455 7.77007 26.1639 6.2687C25.7342 5.8504 25.4944 5.27456 25.5 4.67495C25.5 4.20551 25.1195 3.82495 24.65 3.82495C24.1806 3.82495 23.8 4.20551 23.8 4.67495C23.7925 5.66038 24.1634 6.61113 24.8362 7.3312C25.2611 7.7527 25.5001 8.32644 25.5001 8.92495C25.5001 9.52347 25.2611 10.0972 24.8362 10.5187C24.1634 11.2388 23.7925 12.1895 23.8 13.175Z" fill="#352F55"/>
</g>
<defs>
<clipPath id="clip0">
<rect width="51" height="51" fill="white"/>
</clipPath>
</defs>
</svg>
