<svg width="43" height="43" viewBox="0 0 43 43" fill="none" xmlns="http://www.w3.org/2000/svg">
<g clip-path="url(#clip0)">
<path d="M5.87537 24.4431C5.87537 27.5379 8.3262 30.0557 11.3386 30.0557C14.3511 30.0557 16.8019 27.5379 16.8019 24.4431C16.8019 24.0952 16.5199 23.8132 16.172 23.8132H6.50525C6.15739 23.8132 5.87537 24.0952 5.87537 24.4431ZM15.4983 25.073C15.2027 27.1757 13.4499 28.7959 11.3387 28.7959C9.22743 28.7959 7.47468 27.1757 7.17906 25.073H15.4983Z" fill="#352F55"/>
<path d="M40.9456 35.4157H40.7165C40.6177 28.0015 35.0675 21.88 27.8996 20.8851V19.7702C27.8996 18.6374 26.978 17.7157 25.8452 17.7157C24.7124 17.7157 23.7908 18.6374 23.7908 19.7702V20.8845C22.0304 21.1284 20.3314 21.6848 18.7674 22.5325V19.5534C18.7674 18.9912 18.31 18.5337 17.7477 18.5337H14.8923C14.5444 18.5337 14.2624 18.8157 14.2624 19.1636C14.2624 19.5116 14.5444 19.7935 14.8923 19.7935H17.5076C17.5076 24.8165 17.5336 24.6888 17.4398 25.3814C17.0601 28.0341 15.0878 30.2036 12.4859 30.7093C12.48 30.7105 12.4742 30.7119 12.4682 30.7131C12.1744 30.7695 11.9569 31.0272 11.9569 31.3317V36.2995V36.3005C11.9569 36.7078 12.5403 37.2146 12.8641 37.436L14.0762 38.2648H8.60168L9.81357 37.4361C10.139 37.2136 10.7209 36.7073 10.7209 36.3006V31.3318C10.7209 31.0295 10.5063 30.7699 10.2095 30.7132C9.1779 30.5157 8.24701 30.058 7.47335 29.4142C7.46529 29.4066 7.45764 29.3987 7.44908 29.3916C6.2717 28.4008 5.49207 26.9973 5.25104 25.4672C5.24986 25.4597 5.24877 25.4521 5.2476 25.4446C5.14421 24.7729 5.17016 24.5044 5.17016 19.7935H6.65207H11.9529C12.3008 19.7935 12.5828 19.5116 12.5828 19.1636C12.5828 18.8157 12.3008 18.5337 11.9529 18.5337H7.2817V11.9339C7.2817 11.3236 6.78518 10.8272 6.17495 10.8272H5.16991V10.0178C5.54196 9.9198 5.89638 9.73386 6.2009 9.45906C7.06166 8.68221 7.27036 7.43134 6.70842 6.41715L5.33947 3.94624C5.17848 3.65574 4.8721 3.47534 4.53994 3.47534C4.20779 3.47534 3.90149 3.65582 3.74058 3.94633L2.37163 6.41723C1.8097 7.43143 2.0184 8.68229 2.87924 9.45914C3.18376 9.73394 3.53809 9.9198 3.91014 10.0179V10.8273H2.9051C2.29487 10.8273 1.79836 11.3237 1.79836 11.934V24.1969H1.08743C0.739566 24.1969 0.457547 24.4788 0.457547 24.8268V27.4971C0.457547 29.1211 1.41085 30.5262 2.78702 31.1833V36.0209C1.2423 36.0682 0 37.3387 0 38.8947C0 39.2427 0.28202 39.5246 0.629883 39.5246H34.7479C35.0957 39.5246 35.3777 39.2427 35.3777 38.8947C35.3777 38.5468 35.0957 38.2649 34.7479 38.2649H16.2057C16.1503 38.1832 16.0681 38.1009 15.987 38.0455L13.9835 36.6755H40.9456C41.3837 36.6755 41.7402 37.032 41.7402 37.4702C41.7402 37.9084 41.3837 38.2649 40.9456 38.2649H37.6873C37.3395 38.2649 37.0574 38.5468 37.0574 38.8947C37.0574 39.2427 37.3395 39.5246 37.6873 39.5246H40.9456C42.0784 39.5246 43 38.603 43 37.4702C43 36.3373 42.0784 35.4157 40.9456 35.4157ZM3.47351 7.0278L4.54003 5.10287L5.60655 7.0278C5.92636 7.60502 5.73479 8.32972 5.15639 8.67045C5.09642 8.38498 4.84338 8.17057 4.54011 8.17057C4.23684 8.17057 3.98371 8.38498 3.92383 8.67045C3.34695 8.33056 3.15286 7.60653 3.47351 7.0278ZM9.46092 36.0817C9.2649 36.303 9.16597 36.3527 8.30941 36.9384C7.79148 36.3818 7.06754 36.0457 6.29303 36.0216V31.1859C6.56917 31.0542 6.83078 30.8907 7.07375 30.6971C7.78401 31.2098 8.58799 31.6003 9.46092 31.8334V36.0817ZM3.05821 12.087H6.02202V18.5338H4.9298C4.36761 18.5338 3.91014 18.9912 3.91014 19.5535V24.1969H3.05821V12.087ZM1.71731 27.4971V25.4566H3.97607C4.19578 27.1522 4.95886 28.6881 6.095 29.8535C4.23659 31.0889 1.71731 29.7441 1.71731 27.4971ZM5.03327 31.5496V36.0186H4.04679V31.5496C4.36198 31.5882 4.69145 31.5905 5.03327 31.5496ZM2.87613 37.2784H6.20393C6.59252 37.2784 6.96172 37.4187 7.2497 37.663C6.69145 38.0447 6.58807 38.0929 6.47167 38.2649H1.38751C1.63358 37.6856 2.20812 37.2784 2.87613 37.2784ZM25.0504 19.7702C25.0504 19.3319 25.407 18.9755 25.8451 18.9755C26.2832 18.9755 26.6398 19.3319 26.6398 19.7702V20.7638C26.124 20.7367 25.5905 20.7351 25.0504 20.7637V19.7702H25.0504ZM13.2165 35.4157V31.8334C15.9463 31.1048 18.2724 28.7145 18.6924 25.518C18.7629 25.0052 18.7758 24.5178 18.7705 23.983C27.7017 18.5396 39.3054 24.9089 39.4578 35.4157H13.2165Z" fill="#352F55"/>
</g>
<defs>
<clipPath id="clip0">
<rect width="43" height="43" fill="white"/>
</clipPath>
</defs>
</svg>
