<svg width="24" height="23" viewBox="0 0 24 23" fill="none" xmlns="http://www.w3.org/2000/svg">
<path d="M7.20307 10.3087L7.20224 10.3092C7.20141 10.31 7.20141 10.3108 7.20141 10.3108C7.14476 10.3683 7.10217 10.4378 7.06744 10.5118C7.05793 10.5304 7.05131 10.5473 7.04387 10.5668C7.03643 10.5858 7.02609 10.6032 7.0203 10.6234L5.36301 16.7539C5.29768 16.997 5.36715 17.2563 5.54454 17.4345C5.67851 17.5681 5.85797 17.6404 6.04115 17.6404C6.10234 17.6404 6.16478 17.6326 6.22432 17.6156L12.1191 16.0224C12.158 16.029 12.1952 16.0452 12.2345 16.0452C12.4148 16.0452 12.5946 15.9765 12.7319 15.8392L22.2779 6.29246C22.7865 5.78345 23.0676 5.10656 23.0676 4.38667C23.0676 3.66677 22.7865 2.98988 22.2779 2.48087L20.5602 0.763209C19.5426 -0.25523 17.765 -0.253576 16.749 0.763209L7.20307 10.3087ZM17.7439 1.75684C18.2293 1.27015 19.0795 1.27057 19.5666 1.75725L21.2842 3.4745C21.5282 3.71804 21.6622 4.04181 21.6622 4.38667C21.6622 4.73152 21.5282 5.05487 21.2842 5.29884L20.7674 5.81571L17.2262 2.27495L17.7439 1.75684ZM16.2321 3.26899L19.7733 6.80975L12.2353 14.3482L8.6933 10.807L16.2321 3.26899ZM8.27939 12.3804L10.817 14.9184L7.03974 15.9401L8.06066 12.1624L8.27939 12.3804Z" fill="white"/>
<path d="M17.1334 6.90265L16.1392 5.90869L11.7286 10.3205L12.7229 11.3144L17.1334 6.90265Z" fill="white"/>
<path d="M0.702529 22.2047H19.6158C21.1027 22.2047 22.311 20.9953 22.311 19.5087V9.99091H20.9055V19.5092C20.9055 20.2208 20.3274 20.7988 19.6158 20.7988H1.40588V2.14856H13.4022V0.742676H0.702529C0.314257 0.742676 0 1.05735 0 1.44562V21.5014C0 21.8896 0.313843 22.2047 0.702529 22.2047Z" fill="white"/>
</svg>
