<svg width="18" height="18" viewBox="0 0 18 18" fill="none" xmlns="http://www.w3.org/2000/svg">
<path d="M1.8642 10.3087L1.86337 10.3092C1.86255 10.31 1.86255 10.3108 1.86255 10.3108C1.8059 10.3683 1.76331 10.4378 1.72857 10.5118C1.71906 10.5304 1.71245 10.5473 1.705 10.5668C1.69756 10.5858 1.68722 10.6032 1.68143 10.6234L0.0241449 16.7539C-0.0411873 16.997 0.0282811 17.2563 0.205671 17.4345C0.339643 17.5681 0.5191 17.6404 0.702278 17.6404C0.763476 17.6404 0.825912 17.6326 0.885455 17.6156L6.78024 16.0224C6.81911 16.029 6.85632 16.0452 6.89561 16.0452C7.07589 16.0452 7.25576 15.9765 7.39304 15.8392L16.939 6.29246C17.4476 5.78345 17.7288 5.10656 17.7288 4.38667C17.7288 3.66677 17.4476 2.98988 16.939 2.48087L15.2213 0.763209C14.2037 -0.25523 12.4261 -0.253576 11.4101 0.763209L1.8642 10.3087ZM12.405 1.75684C12.8905 1.27015 13.7406 1.27057 14.2277 1.75725L15.9454 3.4745C16.1893 3.71804 16.3233 4.04181 16.3233 4.38667C16.3233 4.73152 16.1893 5.05487 15.9454 5.29884L15.4285 5.8157L11.8873 2.27495L12.405 1.75684ZM10.8933 3.26899L14.4345 6.80975L6.89643 14.3482L3.35444 10.807L10.8933 3.26899ZM2.94053 12.3804L5.47815 14.9184L1.70087 15.9401L2.72179 12.1624L2.94053 12.3804Z" fill="#B0B0B0"/>
<path d="M11.7945 6.90265L10.8003 5.90869L6.38974 10.3205L7.38398 11.3144L11.7945 6.90265Z" fill="#B0B0B0"/>
</svg>
