<svg width="111" height="111" viewBox="0 0 111 111" fill="none" xmlns="http://www.w3.org/2000/svg">
<path d="M55.5 111C86.1518 111 111 86.1518 111 55.5C111 24.8482 86.1518 0 55.5 0C24.8482 0 0 24.8482 0 55.5C0 86.1518 24.8482 111 55.5 111Z" fill="#F2F2F2"/>
<path opacity="0.2" d="M55.4999 96.0095C46.1278 96.0094 37.0458 92.7597 29.8011 86.8141C22.5565 80.8685 17.5975 72.5949 15.7691 63.4029C13.9408 54.2109 15.3562 44.6694 19.7742 36.404C24.1922 28.1386 31.3394 21.6608 39.998 18.0743C48.6567 14.4878 58.291 14.0145 67.2595 16.7351C76.228 19.4557 83.9757 25.2018 89.1825 32.9944C94.3893 40.7869 96.7331 50.1438 95.8145 59.4708C94.8958 68.7977 90.7717 77.5175 84.1446 84.1446C80.3917 87.918 75.9276 90.9096 71.0107 92.9462C66.0938 94.9828 60.8219 96.024 55.4999 96.0095V96.0095ZM55.4999 17.4886C34.5404 17.4886 17.4886 34.5403 17.4886 55.4998C17.4886 76.4593 34.5404 93.5111 55.4999 93.5111C76.4593 93.5111 93.5112 76.4593 93.5112 55.4998C93.5112 34.5403 76.4593 17.4886 55.4999 17.4886Z" fill="black"/>
<path d="M55.4997 94.7602C77.1827 94.7602 94.7602 77.1827 94.7602 55.4997C94.7602 33.8168 77.1827 16.2393 55.4997 16.2393C33.8168 16.2393 16.2393 33.8168 16.2393 55.4997C16.2393 77.1827 33.8168 94.7602 55.4997 94.7602Z" fill="#46455B"/>
<path d="M26.3028 39.8011C26.005 39.218 25.8251 38.5818 25.7734 37.9291C25.7217 37.2764 25.7991 36.6199 26.0012 35.9971C26.2034 35.3743 26.5263 34.7975 26.9515 34.2996C27.3767 33.8016 27.8959 33.3924 28.4794 33.0953C29.0628 32.7982 29.6991 32.619 30.3519 32.5679C31.0047 32.5168 31.6611 32.595 32.2837 32.7978C32.9063 33.0006 33.4828 33.3241 33.9802 33.7498C34.4777 34.1756 34.8864 34.6952 35.1829 35.279L46.275 57.0604C46.5727 57.6436 46.7526 58.2797 46.8043 58.9324C46.8561 59.5851 46.7787 60.2416 46.5765 60.8644C46.3744 61.4872 46.0515 62.0641 45.6263 62.562C45.201 63.0599 44.6818 63.4691 44.0984 63.7662C43.5149 64.0633 42.8786 64.2426 42.2258 64.2936C41.573 64.3447 40.9166 64.2666 40.294 64.0638C39.6715 63.861 39.095 63.5374 38.5975 63.1117C38.1 62.686 37.6914 62.1663 37.3949 61.5826L26.3028 39.8011Z" fill="#FF6584"/>
<path opacity="0.2" d="M27.5398 42.2311L27.0278 41.2258C29.5828 39.2406 32.583 37.7806 35.908 36.7036L36.4199 37.7089C32.8213 38.4583 29.7597 39.8451 27.5398 42.2311Z" fill="black"/>
<path opacity="0.2" d="M29.9289 46.9225L29.417 45.9172C31.9719 43.932 34.9721 42.472 38.2971 41.395L38.8091 42.4003C35.2104 43.1497 32.1488 44.5365 29.9289 46.9225Z" fill="black"/>
<path opacity="0.2" d="M32.3186 51.6136L31.8066 50.6083C34.3616 48.6232 37.3618 47.1631 40.6868 46.0862L41.1987 47.0915C37.6001 47.8409 34.5385 49.2277 32.3186 51.6136Z" fill="black"/>
<path opacity="0.2" d="M34.7077 56.305L34.1958 55.2997C36.7507 53.3145 39.751 51.8546 43.0759 50.7776L43.5879 51.7829C39.9892 52.5323 36.9276 53.9191 34.7077 56.305Z" fill="black"/>
<path opacity="0.2" d="M37.0964 60.9962L36.5845 59.9909C39.1394 58.0057 42.1396 56.5457 45.4646 55.4688L45.9765 56.474C42.3779 57.2234 39.3163 58.6103 37.0964 60.9962Z" fill="black"/>
<path d="M17.9817 47.9557C17.6841 47.3725 17.5043 46.7364 17.4526 46.0838C17.4009 45.4311 17.4783 44.7746 17.6805 44.1519C17.8827 43.5291 18.2056 42.9524 18.6308 42.4545C19.056 41.9566 19.5751 41.5474 20.1586 41.2503C20.742 40.9532 21.3783 40.774 22.031 40.7229C22.6837 40.6719 23.3401 40.75 23.9627 40.9527C24.5852 41.1555 25.1617 41.4789 25.6591 41.9046C26.1566 42.3303 26.5653 42.8498 26.8619 43.4335L37.9539 65.215C38.552 66.3924 38.6581 67.759 38.2491 69.0146C37.8401 70.2703 36.9493 71.3122 35.7726 71.9114C34.5958 72.5107 33.2293 72.6183 31.9732 72.2106C30.7172 71.8029 29.6743 70.9133 29.0738 69.7371L17.9817 47.9557Z" fill="#FF6584"/>
<path opacity="0.2" d="M19.219 50.3849L18.707 49.3796C21.262 47.3944 24.2622 45.9344 27.5872 44.8574L28.0991 45.8627C24.5005 46.6121 21.4389 47.9989 19.219 50.3849Z" fill="black"/>
<path opacity="0.2" d="M21.6077 55.0763L21.0957 54.071C23.6506 52.0858 26.6509 50.6258 29.9758 49.5488L30.4878 50.5541C26.8891 51.3035 23.8275 52.6903 21.6077 55.0763Z" fill="black"/>
<path opacity="0.2" d="M23.9968 59.7677L23.4849 58.7624C26.0398 56.7772 29.04 55.3172 32.365 54.2402L32.8769 55.2455C29.2783 55.9949 26.2167 57.3818 23.9968 59.7677Z" fill="black"/>
<path opacity="0.2" d="M26.3855 64.4593L25.8735 63.454C28.4285 61.4688 31.4287 60.0089 34.7537 58.9319L35.2656 59.9372C31.667 60.6866 28.6053 62.0734 26.3855 64.4593Z" fill="black"/>
<path opacity="0.2" d="M28.7742 69.1507L28.2622 68.1454C30.8172 66.1603 33.8174 64.7003 37.1423 63.6233L37.6543 64.6286C34.0556 65.378 30.994 66.7648 28.7742 69.1507Z" fill="black"/>
<path d="M81.7333 56.749L81.7683 56.749C82.9631 56.7591 84.1331 56.4088 85.1257 55.7439C86.1184 55.0789 86.8876 54.1303 87.333 53.0217C88.249 50.7061 88.7107 48.2357 88.6928 45.7456C88.6305 35.2058 80.0558 26.5591 69.5168 26.4133C65.0284 26.3505 60.6564 27.8416 57.1419 30.634C53.6274 33.4264 51.1867 37.3482 50.2334 41.7346C49.2801 46.121 49.8729 50.702 51.9114 54.7013C53.9499 58.7005 57.3086 61.8717 61.4182 63.6775C62.5042 64.1583 63.7102 64.2997 64.8779 64.0832C66.0457 63.8666 67.1208 63.3022 67.9623 62.464C69.767 60.6498 71.913 59.2108 74.2765 58.2299C76.64 57.249 79.1743 56.7457 81.7333 56.749Z" fill="#E6E6E6"/>
<path d="M71.7394 50.8599C75.2875 50.8599 78.1638 47.9835 78.1638 44.4354C78.1638 40.8873 75.2875 38.011 71.7394 38.011C68.1913 38.011 65.3149 40.8873 65.3149 44.4354C65.3149 47.9835 68.1913 50.8599 71.7394 50.8599Z" fill="#F9A825"/>
<path d="M57.7764 43.7134C58.1943 43.7134 58.5332 43.3745 58.5332 42.9565C58.5332 42.5386 58.1943 42.1997 57.7764 42.1997C57.3584 42.1997 57.0195 42.5386 57.0195 42.9565C57.0195 43.3745 57.3584 43.7134 57.7764 43.7134Z" fill="#46455B"/>
<path d="M32.7925 44.4272C33.2105 44.4272 33.5493 44.0884 33.5493 43.6704C33.5493 43.2524 33.2105 42.9136 32.7925 42.9136C32.3745 42.9136 32.0356 43.2524 32.0356 43.6704C32.0356 44.0884 32.3745 44.4272 32.7925 44.4272Z" fill="#46455B"/>
<path d="M61.8105 35.8699C62.2285 35.8699 62.5674 35.531 62.5674 35.113C62.5674 34.695 62.2285 34.3562 61.8105 34.3562C61.3926 34.3562 61.0537 34.695 61.0537 35.113C61.0537 35.531 61.3926 35.8699 61.8105 35.8699Z" fill="#46455B"/>
<path d="M61.7891 57.6846C62.207 57.6846 62.5459 57.3457 62.5459 56.9277C62.5459 56.5097 62.207 56.1709 61.7891 56.1709C61.3711 56.1709 61.0322 56.5097 61.0322 56.9277C61.0322 57.3457 61.3711 57.6846 61.7891 57.6846Z" fill="#46455B"/>
<path d="M76.7788 34.3066C77.1968 34.3066 77.5356 33.9678 77.5356 33.5498C77.5356 33.1318 77.1968 32.793 76.7788 32.793C76.3608 32.793 76.022 33.1318 76.022 33.5498C76.022 33.9678 76.3608 34.3066 76.7788 34.3066Z" fill="#46455B"/>
<path d="M27.8818 55.0078C28.2998 55.0078 28.6387 54.669 28.6387 54.251C28.6387 53.833 28.2998 53.4941 27.8818 53.4941C27.4638 53.4941 27.125 53.833 27.125 54.251C27.125 54.669 27.4638 55.0078 27.8818 55.0078Z" fill="#46455B"/>
<path d="M33.4145 65.8935C33.8325 65.8935 34.1714 65.5547 34.1714 65.1367C34.1714 64.7187 33.8325 64.3799 33.4145 64.3799C32.9966 64.3799 32.6577 64.7187 32.6577 65.1367C32.6577 65.5547 32.9966 65.8935 33.4145 65.8935Z" fill="#46455B"/>
<path d="M68.1703 69.4198C69.7472 69.4198 71.0256 68.1415 71.0256 66.5645C71.0256 64.9876 69.7472 63.7092 68.1703 63.7092C66.5933 63.7092 65.3149 64.9876 65.3149 66.5645C65.3149 68.1415 66.5933 69.4198 68.1703 69.4198Z" fill="#FF6584"/>
<path opacity="0.2" d="M70.3118 66.7427C70.3118 67.3106 70.0861 67.8553 69.6845 68.2569C69.2829 68.6585 68.7382 68.8842 68.1703 68.8842C67.6023 68.8842 67.0576 68.6585 66.656 68.2569C66.2544 67.8553 66.0288 67.3106 66.0288 66.7427" fill="black"/>
<path opacity="0.2" d="M66.0288 66.3859C66.0288 65.8179 66.2544 65.2732 66.656 64.8716C67.0576 64.47 67.6023 64.2444 68.1703 64.2444C68.7382 64.2444 69.2829 64.47 69.6845 64.8716C70.0861 65.2732 70.3118 65.8179 70.3118 66.3859" fill="black"/>
<path d="M67.1003 65.8506C67.1989 65.8506 67.2788 65.7307 67.2788 65.5829C67.2788 65.435 67.1989 65.3152 67.1003 65.3152C67.0018 65.3152 66.9219 65.435 66.9219 65.5829C66.9219 65.7307 67.0018 65.8506 67.1003 65.8506Z" fill="#FF6584"/>
<path d="M68.1706 65.4936C68.2692 65.4936 68.3491 65.3738 68.3491 65.2259C68.3491 65.0781 68.2692 64.9583 68.1706 64.9583C68.0721 64.9583 67.9922 65.0781 67.9922 65.2259C67.9922 65.3738 68.0721 65.4936 68.1706 65.4936Z" fill="#FF6584"/>
<path d="M68.1706 67.8135C68.2692 67.8135 68.3491 67.6936 68.3491 67.5458C68.3491 67.3979 68.2692 67.2781 68.1706 67.2781C68.0721 67.2781 67.9922 67.3979 67.9922 67.5458C67.9922 67.6936 68.0721 67.8135 68.1706 67.8135Z" fill="#FF6584"/>
<path d="M69.2414 66.386C69.34 66.386 69.4199 66.2661 69.4199 66.1183C69.4199 65.9704 69.34 65.8506 69.2414 65.8506C69.1429 65.8506 69.063 65.9704 69.063 66.1183C69.063 66.2661 69.1429 66.386 69.2414 66.386Z" fill="#FF6584"/>
<path d="M69.0627 68.3489C69.1613 68.3489 69.2412 68.229 69.2412 68.0812C69.2412 67.9333 69.1613 67.8135 69.0627 67.8135C68.9642 67.8135 68.8843 67.9333 68.8843 68.0812C68.8843 68.229 68.9642 68.3489 69.0627 68.3489Z" fill="#FF6584"/>
<path d="M66.9211 67.4565C67.0197 67.4565 67.0996 67.3367 67.0996 67.1888C67.0996 67.041 67.0197 66.9211 66.9211 66.9211C66.8226 66.9211 66.7427 67.041 66.7427 67.1888C66.7427 67.3367 66.8226 67.4565 66.9211 67.4565Z" fill="#FF6584"/>
<path d="M73.8807 61.746C75.4576 61.746 76.736 60.4677 76.736 58.8907C76.736 57.3138 75.4576 56.0354 73.8807 56.0354C72.3038 56.0354 71.0254 57.3138 71.0254 58.8907C71.0254 60.4677 72.3038 61.746 73.8807 61.746Z" fill="#FF6584"/>
<path opacity="0.2" d="M76.0222 59.0688C76.0222 59.6368 75.7966 60.1815 75.395 60.5831C74.9934 60.9847 74.4487 61.2103 73.8807 61.2103C73.3128 61.2103 72.7681 60.9847 72.3665 60.5831C71.9649 60.1815 71.7393 59.6368 71.7393 59.0688" fill="black"/>
<path opacity="0.2" d="M71.7393 58.7123C71.7393 58.1443 71.9649 57.5996 72.3665 57.198C72.7681 56.7964 73.3128 56.5708 73.8807 56.5708C74.4487 56.5708 74.9934 56.7964 75.395 57.198C75.7966 57.5996 76.0222 58.1443 76.0222 58.7123" fill="black"/>
<path d="M72.8103 58.1767C72.9089 58.1767 72.9887 58.0569 72.9887 57.909C72.9887 57.7612 72.9089 57.6414 72.8103 57.6414C72.7117 57.6414 72.6318 57.7612 72.6318 57.909C72.6318 58.0569 72.7117 58.1767 72.8103 58.1767Z" fill="#FF6584"/>
<path d="M73.8811 57.8198C73.9797 57.8198 74.0595 57.6999 74.0595 57.5521C74.0595 57.4043 73.9797 57.2844 73.8811 57.2844C73.7825 57.2844 73.7026 57.4043 73.7026 57.5521C73.7026 57.6999 73.7825 57.8198 73.8811 57.8198Z" fill="#FF6584"/>
<path d="M73.8811 60.1396C73.9797 60.1396 74.0595 60.0198 74.0595 59.8719C74.0595 59.7241 73.9797 59.6042 73.8811 59.6042C73.7825 59.6042 73.7026 59.7241 73.7026 59.8719C73.7026 60.0198 73.7825 60.1396 73.8811 60.1396Z" fill="#FF6584"/>
<path d="M74.9519 58.7121C75.0505 58.7121 75.1304 58.5923 75.1304 58.4444C75.1304 58.2966 75.0505 58.1768 74.9519 58.1768C74.8533 58.1768 74.7734 58.2966 74.7734 58.4444C74.7734 58.5923 74.8533 58.7121 74.9519 58.7121Z" fill="#FF6584"/>
<path d="M74.7732 60.675C74.8717 60.675 74.9516 60.5552 74.9516 60.4073C74.9516 60.2595 74.8717 60.1396 74.7732 60.1396C74.6746 60.1396 74.5947 60.2595 74.5947 60.4073C74.5947 60.5552 74.6746 60.675 74.7732 60.675Z" fill="#FF6584"/>
<path d="M72.6316 59.7827C72.7301 59.7827 72.81 59.6628 72.81 59.515C72.81 59.3672 72.7301 59.2473 72.6316 59.2473C72.533 59.2473 72.4531 59.3672 72.4531 59.515C72.4531 59.6628 72.533 59.7827 72.6316 59.7827Z" fill="#FF6584"/>
<path d="M79.5921 65.6718C81.1691 65.6718 82.4474 64.3934 82.4474 62.8165C82.4474 61.2395 81.1691 59.9612 79.5921 59.9612C78.0152 59.9612 76.7368 61.2395 76.7368 62.8165C76.7368 64.3934 78.0152 65.6718 79.5921 65.6718Z" fill="#F2F2F2"/>
<path opacity="0.2" d="M81.7336 62.9954C81.7336 63.5633 81.508 64.108 81.1064 64.5096C80.7048 64.9112 80.1601 65.1368 79.5922 65.1368C79.0242 65.1368 78.4795 64.9112 78.0779 64.5096C77.6763 64.108 77.4507 63.5633 77.4507 62.9954" fill="black"/>
<path opacity="0.2" d="M77.4507 62.6381C77.4507 62.0701 77.6763 61.5254 78.0779 61.1238C78.4795 60.7222 79.0242 60.4966 79.5922 60.4966C80.1601 60.4966 80.7048 60.7222 81.1064 61.1238C81.508 61.5254 81.7336 62.0701 81.7336 62.6381" fill="black"/>
<path d="M78.5207 62.1025C78.6193 62.1025 78.6992 61.9827 78.6992 61.8348C78.6992 61.687 78.6193 61.5671 78.5207 61.5671C78.4222 61.5671 78.3423 61.687 78.3423 61.8348C78.3423 61.9827 78.4222 62.1025 78.5207 62.1025Z" fill="#F2F2F2"/>
<path d="M79.5915 61.7458C79.6901 61.7458 79.77 61.626 79.77 61.4781C79.77 61.3303 79.6901 61.2104 79.5915 61.2104C79.493 61.2104 79.4131 61.3303 79.4131 61.4781C79.4131 61.626 79.493 61.7458 79.5915 61.7458Z" fill="#F2F2F2"/>
<path d="M79.5915 64.0661C79.6901 64.0661 79.77 63.9463 79.77 63.7984C79.77 63.6506 79.6901 63.5308 79.5915 63.5308C79.493 63.5308 79.4131 63.6506 79.4131 63.7984C79.4131 63.9463 79.493 64.0661 79.5915 64.0661Z" fill="#F2F2F2"/>
<path d="M80.6623 62.6384C80.7609 62.6384 80.8408 62.5186 80.8408 62.3707C80.8408 62.2229 80.7609 62.103 80.6623 62.103C80.5638 62.103 80.4839 62.2229 80.4839 62.3707C80.4839 62.5186 80.5638 62.6384 80.6623 62.6384Z" fill="#F2F2F2"/>
<path d="M80.4841 64.6013C80.5827 64.6013 80.6626 64.4814 80.6626 64.3336C80.6626 64.1858 80.5827 64.0659 80.4841 64.0659C80.3856 64.0659 80.3057 64.1858 80.3057 64.3336C80.3057 64.4814 80.3856 64.6013 80.4841 64.6013Z" fill="#F2F2F2"/>
<path d="M78.343 63.7092C78.4416 63.7092 78.5215 63.5894 78.5215 63.4415C78.5215 63.2937 78.4416 63.1738 78.343 63.1738C78.2444 63.1738 78.1646 63.2937 78.1646 63.4415C78.1646 63.5894 78.2444 63.7092 78.343 63.7092Z" fill="#F2F2F2"/>
<path d="M65.3153 66.0287C66.8922 66.0287 68.1706 64.7504 68.1706 63.1734C68.1706 61.5965 66.8922 60.3181 65.3153 60.3181C63.7383 60.3181 62.46 61.5965 62.46 63.1734C62.46 64.7504 63.7383 66.0287 65.3153 66.0287Z" fill="#F2F2F2"/>
<path opacity="0.2" d="M67.4568 63.3523C67.4568 63.9203 67.2312 64.4649 66.8296 64.8666C66.4279 65.2682 65.8833 65.4938 65.3153 65.4938C64.7474 65.4938 64.2027 65.2682 63.801 64.8666C63.3994 64.4649 63.1738 63.9203 63.1738 63.3523" fill="black"/>
<path opacity="0.2" d="M63.1738 62.9955C63.1738 62.4275 63.3994 61.8828 63.801 61.4812C64.2027 61.0796 64.7474 60.854 65.3153 60.854C65.8833 60.854 66.4279 61.0796 66.8296 61.4812C67.2312 61.8828 67.4568 62.4275 67.4568 62.9955" fill="black"/>
<path d="M64.2439 62.4599C64.3424 62.4599 64.4223 62.3401 64.4223 62.1922C64.4223 62.0444 64.3424 61.9246 64.2439 61.9246C64.1453 61.9246 64.0654 62.0444 64.0654 62.1922C64.0654 62.3401 64.1453 62.4599 64.2439 62.4599Z" fill="#F2F2F2"/>
<path d="M65.3157 62.1025C65.4142 62.1025 65.4941 61.9827 65.4941 61.8348C65.4941 61.687 65.4142 61.5671 65.3157 61.5671C65.2171 61.5671 65.1372 61.687 65.1372 61.8348C65.1372 61.9827 65.2171 62.1025 65.3157 62.1025Z" fill="#F2F2F2"/>
<path d="M65.3157 64.4231C65.4142 64.4231 65.4941 64.3032 65.4941 64.1554C65.4941 64.0075 65.4142 63.8877 65.3157 63.8877C65.2171 63.8877 65.1372 64.0075 65.1372 64.1554C65.1372 64.3032 65.2171 64.4231 65.3157 64.4231Z" fill="#F2F2F2"/>
<path d="M66.3865 62.9953C66.485 62.9953 66.5649 62.8755 66.5649 62.7276C66.5649 62.5798 66.485 62.46 66.3865 62.46C66.2879 62.46 66.208 62.5798 66.208 62.7276C66.208 62.8755 66.2879 62.9953 66.3865 62.9953Z" fill="#F2F2F2"/>
<path d="M66.2073 64.9582C66.3058 64.9582 66.3857 64.8384 66.3857 64.6905C66.3857 64.5427 66.3058 64.4229 66.2073 64.4229C66.1087 64.4229 66.0288 64.5427 66.0288 64.6905C66.0288 64.8384 66.1087 64.9582 66.2073 64.9582Z" fill="#F2F2F2"/>
<path d="M64.0661 64.0661C64.1647 64.0661 64.2446 63.9463 64.2446 63.7984C64.2446 63.6506 64.1647 63.5308 64.0661 63.5308C63.9676 63.5308 63.8877 63.6506 63.8877 63.7984C63.8877 63.9463 63.9676 64.0661 64.0661 64.0661Z" fill="#F2F2F2"/>
<path d="M71.7396 67.2777C73.3165 67.2777 74.5949 65.9994 74.5949 64.4224C74.5949 62.8455 73.3165 61.5671 71.7396 61.5671C70.1626 61.5671 68.8843 62.8455 68.8843 64.4224C68.8843 65.9994 70.1626 67.2777 71.7396 67.2777Z" fill="#F2F2F2"/>
<path opacity="0.2" d="M73.8811 64.6013C73.8811 64.8825 73.8257 65.161 73.7181 65.4208C73.6105 65.6806 73.4527 65.9167 73.2539 66.1156C73.055 66.3144 72.8189 66.4722 72.5591 66.5798C72.2993 66.6874 72.0208 66.7428 71.7396 66.7428C71.4584 66.7428 71.1799 66.6874 70.9201 66.5798C70.6603 66.4722 70.4242 66.3144 70.2254 66.1156C70.0265 65.9167 69.8688 65.6806 69.7611 65.4208C69.6535 65.161 69.5981 64.8825 69.5981 64.6013" fill="black"/>
<path opacity="0.2" d="M69.5981 64.2445C69.5981 63.9633 69.6535 63.6848 69.7611 63.425C69.8688 63.1652 70.0265 62.9291 70.2254 62.7303C70.4242 62.5314 70.6603 62.3737 70.9201 62.266C71.1799 62.1584 71.4584 62.103 71.7396 62.103C72.0208 62.103 72.2993 62.1584 72.5591 62.266C72.8189 62.3737 73.055 62.5314 73.2539 62.7303C73.4527 62.9291 73.6105 63.1652 73.7181 63.425C73.8257 63.6848 73.8811 63.9633 73.8811 64.2445" fill="black"/>
<path d="M70.6692 63.7092C70.7677 63.7092 70.8476 63.5894 70.8476 63.4415C70.8476 63.2937 70.7677 63.1738 70.6692 63.1738C70.5706 63.1738 70.4907 63.2937 70.4907 63.4415C70.4907 63.5894 70.5706 63.7092 70.6692 63.7092Z" fill="#F2F2F2"/>
<path d="M71.74 63.3523C71.8385 63.3523 71.9184 63.2324 71.9184 63.0846C71.9184 62.9367 71.8385 62.8169 71.74 62.8169C71.6414 62.8169 71.5615 62.9367 71.5615 63.0846C71.5615 63.2324 71.6414 63.3523 71.74 63.3523Z" fill="#F2F2F2"/>
<path d="M71.74 65.6721C71.8385 65.6721 71.9184 65.5522 71.9184 65.4044C71.9184 65.2566 71.8385 65.1367 71.74 65.1367C71.6414 65.1367 71.5615 65.2566 71.5615 65.4044C71.5615 65.5522 71.6414 65.6721 71.74 65.6721Z" fill="#F2F2F2"/>
<path d="M72.8103 64.2446C72.9089 64.2446 72.9887 64.1248 72.9887 63.9769C72.9887 63.8291 72.9089 63.7092 72.8103 63.7092C72.7117 63.7092 72.6318 63.8291 72.6318 63.9769C72.6318 64.1248 72.7117 64.2446 72.8103 64.2446Z" fill="#F2F2F2"/>
<path d="M72.6316 66.2075C72.7301 66.2075 72.81 66.0876 72.81 65.9398C72.81 65.792 72.7301 65.6721 72.6316 65.6721C72.533 65.6721 72.4531 65.792 72.4531 65.9398C72.4531 66.0876 72.533 66.2075 72.6316 66.2075Z" fill="#F2F2F2"/>
<path d="M70.49 65.3152C70.5885 65.3152 70.6684 65.1953 70.6684 65.0475C70.6684 64.8996 70.5885 64.7798 70.49 64.7798C70.3914 64.7798 70.3115 64.8996 70.3115 65.0475C70.3115 65.1953 70.3914 65.3152 70.49 65.3152Z" fill="#F2F2F2"/>
<path d="M76.201 70.3119C77.7779 70.3119 79.0563 69.0336 79.0563 67.4566C79.0563 65.8797 77.7779 64.6013 76.201 64.6013C74.6241 64.6013 73.3457 65.8797 73.3457 67.4566C73.3457 69.0336 74.6241 70.3119 76.201 70.3119Z" fill="#FF6584"/>
<path opacity="0.2" d="M78.3425 67.635C78.3425 68.203 78.1169 68.7477 77.7153 69.1493C77.3137 69.5509 76.769 69.7765 76.201 69.7765C75.6331 69.7765 75.0884 69.5509 74.6868 69.1493C74.2852 68.7477 74.0596 68.203 74.0596 67.635" fill="black"/>
<path opacity="0.2" d="M74.0596 67.2782C74.0596 66.7102 74.2852 66.1655 74.6868 65.7639C75.0884 65.3623 75.6331 65.1367 76.201 65.1367C76.769 65.1367 77.3137 65.3623 77.7153 65.7639C78.1169 66.1655 78.3425 66.7102 78.3425 67.2782" fill="black"/>
<path d="M75.1296 66.7429C75.2282 66.7429 75.3081 66.623 75.3081 66.4752C75.3081 66.3274 75.2282 66.2075 75.1296 66.2075C75.0311 66.2075 74.9512 66.3274 74.9512 66.4752C74.9512 66.623 75.0311 66.7429 75.1296 66.7429Z" fill="#FF6584"/>
<path d="M76.2004 66.386C76.299 66.386 76.3789 66.2661 76.3789 66.1183C76.3789 65.9704 76.299 65.8506 76.2004 65.8506C76.1019 65.8506 76.022 65.9704 76.022 66.1183C76.022 66.2661 76.1019 66.386 76.2004 66.386Z" fill="#FF6584"/>
<path d="M76.2004 68.7058C76.299 68.7058 76.3789 68.5859 76.3789 68.4381C76.3789 68.2903 76.299 68.1704 76.2004 68.1704C76.1019 68.1704 76.022 68.2903 76.022 68.4381C76.022 68.5859 76.1019 68.7058 76.2004 68.7058Z" fill="#FF6584"/>
<path d="M77.2722 67.278C77.3708 67.278 77.4507 67.1582 77.4507 67.0104C77.4507 66.8625 77.3708 66.7427 77.2722 66.7427C77.1736 66.7427 77.0938 66.8625 77.0938 67.0104C77.0938 67.1582 77.1736 67.278 77.2722 67.278Z" fill="#FF6584"/>
<path d="M77.0935 69.2409C77.1921 69.2409 77.272 69.1211 77.272 68.9733C77.272 68.8254 77.1921 68.7056 77.0935 68.7056C76.9949 68.7056 76.915 68.8254 76.915 68.9733C76.915 69.1211 76.9949 69.2409 77.0935 69.2409Z" fill="#FF6584"/>
<path d="M74.9519 68.3489C75.0505 68.3489 75.1304 68.229 75.1304 68.0812C75.1304 67.9333 75.0505 67.8135 74.9519 67.8135C74.8533 67.8135 74.7734 67.9333 74.7734 68.0812C74.7734 68.229 74.8533 68.3489 74.9519 68.3489Z" fill="#FF6584"/>
<path d="M39.4814 57.3276C39.8994 57.3276 40.2383 56.9888 40.2383 56.5708C40.2383 56.1528 39.8994 55.814 39.4814 55.814C39.0634 55.814 38.7246 56.1528 38.7246 56.5708C38.7246 56.9888 39.0634 57.3276 39.4814 57.3276Z" fill="#46455B"/>
<path d="M60.0538 84.0419L41.8774 79.0012L42.5737 76.4148L60.7501 81.4557L60.0538 84.0419Z" fill="#F9A825"/>
<path d="M57.3896 83.1776C51.1652 84.3692 44.7713 84.3692 38.5469 83.1776V80.4966C44.7852 81.5305 51.1513 81.5305 57.3896 80.4966V83.1776Z" fill="#F9A825"/>
<path d="M59.3266 75.1346C53.1022 76.3262 46.7083 76.3262 40.4839 75.1346V72.4536C46.7223 73.4875 53.0883 73.4875 59.3266 72.4536V75.1346Z" fill="#F9A825"/>
<path d="M65.8427 78.3519C59.6183 79.5435 53.2244 79.5435 47 78.3519V75.6709C53.2384 76.7048 59.6044 76.7048 65.8427 75.6709V78.3519Z" fill="#F9A825"/>
<path d="M67.4267 81.39C61.2023 82.5816 54.8084 82.5816 48.584 81.39V78.709C54.8224 79.7429 61.1884 79.7429 67.4267 78.709V81.39Z" fill="#F9A825"/>
<path d="M72.9524 85.3602L54.3623 88.4829L53.9312 85.8377L72.521 82.7151L72.9524 85.3602Z" fill="#F9A825"/>
<path d="M70.1761 85.7039C65.0221 89.4191 59.2133 92.1284 53.0546 93.6895L51.9517 91.2533C58.0565 89.5439 63.8402 86.8464 69.0732 83.2678L70.1761 85.7039Z" fill="#F9A825"/>
<path d="M68.6268 77.5753C63.4728 81.2905 57.664 83.9997 51.5053 85.5608L50.4023 83.1247C56.5071 81.4153 62.2908 78.7177 67.5239 75.1392L68.6268 77.5753Z" fill="#F9A825"/>
<path d="M75.871 77.7366C70.717 81.4518 64.9082 84.1611 58.7495 85.7222L57.6465 83.2861C63.7513 81.5766 69.535 78.8791 74.768 75.3005L75.871 77.7366Z" fill="#F9A825"/>
<path d="M78.5614 79.826C73.4074 83.5412 67.5986 86.2505 61.4399 87.8115L60.3369 85.3754C66.4417 83.666 72.2254 80.9685 77.4584 77.3899L78.5614 79.826Z" fill="#F9A825"/>
<path d="M56.0353 74.595H55.1431V75.4873H56.0353V74.595Z" fill="#00BF71"/>
<path d="M58.7126 90.1206H57.8203V91.0129H58.7126V90.1206Z" fill="#00BF71"/>
<path d="M44.4357 74.595H43.5435V75.4873H44.4357V74.595Z" fill="#00BF71"/>
<path d="M65.1369 85.6594H64.2446V86.5517H65.1369V85.6594Z" fill="#00BF71"/>
<path d="M65.6716 80.4839H64.7793V81.3762H65.6716V80.4839Z" fill="#00BF71"/>
<path d="M50.9532 78.0412L49.9194 77.3398L49.5187 77.9305L50.5524 78.6319L50.9532 78.0412Z" fill="#00BF71"/>
<path d="M61.4825 80.0041L60.4487 79.3027L60.048 79.8934L61.0817 80.5948L61.4825 80.0041Z" fill="#00BF71"/>
<path d="M48.6328 83.3945L47.5991 82.6931L47.1983 83.2838L48.2321 83.9852L48.6328 83.3945Z" fill="#00BF71"/>
<path d="M55.1771 83.3423L55.8784 82.3086L55.2877 81.9078L54.5864 82.9415L55.1771 83.3423Z" fill="#00BF71"/>
<path d="M59.9954 84.5921L60.6968 83.5583L60.1061 83.1576L59.4047 84.1913L59.9954 84.5921Z" fill="#00BF71"/>
<path d="M72.846 80.3089L73.5474 79.2751L72.9567 78.8744L72.2553 79.9081L72.846 80.3089Z" fill="#00BF71"/>
</svg>
