<svg width="23" height="23" viewBox="0 0 23 23" fill="none" xmlns="http://www.w3.org/2000/svg">
<path d="M22.7922 5.4037L18.1888 10.3998C18.183 10.4056 18.1767 10.4111 18.1704 10.4169C17.4017 11.1744 16.4006 11.5527 15.3991 11.5527C14.8017 11.5527 14.2038 11.418 13.6556 11.1485L9.70998 15.0944L10.0002 15.3847L2.87972 22.5058C2.87944 22.5061 2.87944 22.5061 2.87944 22.5061C2.59139 22.7942 2.22497 22.9561 1.84863 22.9923C1.79482 22.9975 1.74074 23 1.68639 23C1.65963 23 1.63259 22.9994 1.60582 22.9981C1.44414 22.9903 1.28328 22.9594 1.12877 22.9054C1.10311 22.8965 1.07745 22.8866 1.05206 22.8764C0.849265 22.7939 0.658884 22.6705 0.494163 22.5058C0.329442 22.3411 0.206108 22.1509 0.12361 21.9478C0.113401 21.9227 0.103468 21.8971 0.0946385 21.8711C0.0405593 21.7166 0.00965702 21.556 0.00193141 21.394C-0.0019314 21.3132 -1.90154e-08 21.2321 0.00772559 21.1515C0.0435945 20.7754 0.205832 20.4089 0.493887 20.1206C0.494163 20.1203 0.494163 20.1203 0.494163 20.1203L7.61414 12.9997L7.9044 13.29L11.85 9.34409C11.1251 7.86838 11.3751 6.03477 12.6024 4.80712L12.6041 4.80877L17.597 0.208057C17.751 0.0540838 17.9237 0 18.073 0C18.2206 0 18.3456 0.0527042 18.4068 0.113962L13.1592 5.36231L13.1597 5.36286L18.4074 0.11479C18.5304 0.237859 18.6193 0.618653 18.3136 0.924669L13.7132 5.91694L14.8436 7.04746L19.8355 2.44674C19.9895 2.29277 20.1622 2.23869 20.3114 2.23896C20.4591 2.23896 20.5841 2.29167 20.6453 2.35292L15.3977 7.60099L15.3982 7.60155L20.6459 2.35348C20.7689 2.47655 20.8578 2.85734 20.552 3.16336L15.9517 8.15563L17.0838 9.2878L22.0759 4.68736C22.2299 4.53339 22.4026 4.4793 22.5519 4.47958C22.6995 4.47958 22.8245 4.53228 22.8857 4.59354L17.6378 9.84161L17.6384 9.84216L22.886 4.59409C23.0091 4.71689 23.0982 5.09768 22.7922 5.4037ZM14.714 13.0003L14.4234 13.2908L13.6213 12.4887L11.8171 14.293L12.619 15.0949L12.3287 15.3852L19.4489 22.5058C20.1075 23.1645 21.1753 23.1642 21.8339 22.5058C22.4926 21.8471 22.4923 20.7792 21.8339 20.1206L14.714 13.0003ZM7.89281 11.9964L10.5112 9.37776L9.7086 8.57506L4.5788 3.44509C4.05318 2.91943 2.55193 1.77318 1.90988 2.3532C1.9096 2.35348 1.90905 2.35403 1.90905 2.35403C0.787184 3.47903 2.3094 6.8223 5.3097 9.82285C6.16255 10.676 7.04327 11.4092 7.89281 11.9964Z" fill="white"/>
</svg>
