<svg width="34" height="34" viewBox="0 0 34 34" fill="none" xmlns="http://www.w3.org/2000/svg">
<g clip-path="url(#clip0)">
<path d="M25.2736 13.6425L27.2712 13.5156C27.2746 13.5154 27.2783 13.5151 27.2819 13.5149C28.7055 13.3945 29.9833 12.6473 30.7879 11.4642L32.3672 9.1427C33.7417 7.12166 34.2743 4.68061 33.8662 2.26946C33.7861 1.79591 33.5443 1.35952 33.1858 1.04114C32.8271 0.722489 32.3659 0.534316 31.887 0.511445C29.4481 0.394487 27.0941 1.21709 25.2565 2.8267L23.1455 4.67593C22.0698 5.6181 21.4825 6.97871 21.5338 8.4095C21.5341 8.41288 21.5341 8.41652 21.5344 8.42016L21.6482 10.4222C21.6926 11.2027 21.407 11.9728 20.8661 12.5337L4.374 29.5093C3.9325 29.9706 3.70449 30.6035 3.73225 31.2915C3.76286 32.0488 4.10967 32.7927 4.66012 33.2816C5.15739 33.7231 5.84091 33.9747 6.52417 33.9747C6.59732 33.9747 6.67047 33.9719 6.74336 33.9659C7.42844 33.9111 8.02843 33.6085 8.43465 33.1111L23.2742 14.6748C23.7662 14.0682 24.4951 13.6918 25.2736 13.6425ZM22.4819 14.0323L7.64374 32.467C7.41702 32.7446 7.06839 32.9156 6.66217 32.9481C6.17891 32.9868 5.68345 32.8257 5.33638 32.5174C4.9893 32.2089 4.77037 31.7354 4.75091 31.2501C4.73431 30.8423 4.86167 30.4751 5.10707 30.2188L21.5979 13.2445C22.3372 12.4781 22.7263 11.4283 22.6661 10.3643L22.5522 8.36739C22.5136 7.24745 22.974 6.18262 23.8163 5.44474L25.9273 3.5955C27.5657 2.16055 29.6653 1.42788 31.8385 1.53132C32.086 1.54328 32.3241 1.64048 32.5096 1.80526C32.695 1.96978 32.8198 2.19538 32.8613 2.43995C33.225 4.58965 32.7503 6.76559 31.5249 8.56726L29.9457 10.889C29.3156 11.8153 28.3156 12.4009 27.2012 12.4968L25.209 12.6231C24.1476 12.6907 23.154 13.2037 22.4819 14.0323Z" fill="#352F55"/>
<path d="M33.0585 29.3804L22.0005 19.289C21.7925 19.099 21.4703 19.114 21.2804 19.3225C21.091 19.5309 21.1061 19.854 21.3141 20.044L32.3692 30.1331C32.6323 30.3766 32.7814 30.7355 32.7895 31.1436C32.7991 31.6291 32.6089 32.1149 32.2808 32.4436C31.9529 32.7722 31.4689 32.9632 30.9833 32.9533C30.576 32.9453 30.2178 32.7958 29.9773 32.5351L20.1237 21.696C19.9341 21.4873 19.6117 21.4724 19.4037 21.6622C19.1956 21.8522 19.1806 22.1752 19.3702 22.3837L29.2261 33.2254C29.6593 33.6948 30.2761 33.961 30.9633 33.9745C30.9812 33.9748 30.9988 33.975 31.0167 33.975C31.7552 33.975 32.4938 33.6748 33.0014 33.1659C33.5218 32.6446 33.8234 31.8812 33.8084 31.1236C33.7949 30.4351 33.5295 29.817 33.0585 29.3804Z" fill="#352F55"/>
<path d="M6.14985 13.5459C6.99342 14.3246 8.08938 14.7685 9.23593 14.7961C9.23956 14.7964 9.24319 14.7964 9.24656 14.7964L11.2481 14.8026C12.0284 14.8049 12.7783 15.1368 13.3046 15.7115L14.1863 16.6812C14.287 16.7919 14.4247 16.8481 14.5632 16.8481C14.6857 16.8481 14.8086 16.8041 14.9062 16.715C15.1145 16.525 15.1295 16.2019 14.9399 15.9935L14.0569 15.0225C13.3378 14.237 12.3153 13.7848 11.2515 13.7812L9.25538 13.7749C8.36849 13.7523 7.52052 13.4121 6.86346 12.8161L1.06301 5.90728C1.00387 5.83658 1.00828 5.73418 1.07339 5.66894C1.11801 5.62398 1.1704 5.61748 1.19764 5.61748C1.22488 5.61748 1.27728 5.62398 1.32215 5.66894L6.60198 10.9594C7.12389 11.4823 7.97317 11.4823 8.49508 10.9591L9.11557 10.3377V10.3374L10.2172 9.23357C10.2172 9.23357 10.2175 9.23357 10.2175 9.23331L10.2178 9.23305L10.838 8.61161C11.3599 8.08868 11.3599 7.23774 10.838 6.71481L5.55816 1.42466C5.48967 1.35605 5.48967 1.24403 5.55816 1.17541C5.62326 1.11018 5.72547 1.10576 5.79603 1.16502L12.6914 6.97706C13.2865 7.63514 13.626 8.48504 13.6486 9.3734L13.6545 11.3736C13.6582 12.4393 14.1098 13.4638 14.8947 14.1858L15.8395 15.0479C16.0478 15.2379 16.3699 15.2229 16.5596 15.0144C16.7489 14.8057 16.7339 14.4829 16.5258 14.2929L15.5827 13.4321C15.0076 12.9035 14.6766 12.1518 14.674 11.3703L14.6678 9.36482C14.6678 9.36118 14.6678 9.35754 14.6675 9.35391C14.64 8.20512 14.197 7.10701 13.4198 6.26179C13.4053 6.24594 13.3897 6.23086 13.3731 6.21683L6.45205 0.383475C5.97371 -0.0199003 5.27956 0.0102489 4.83754 0.45313C4.3714 0.920183 4.3714 1.67989 4.83754 2.14668L10.1174 7.43709C10.2419 7.56185 10.2419 7.76483 10.1174 7.88959L9.85719 8.15002L3.9727 2.25429C3.77374 2.05468 3.45105 2.05468 3.25209 2.25429C3.05313 2.45363 3.05313 2.77696 3.25209 2.97631L9.13658 8.8723L8.75526 9.2541L2.87077 3.35837C2.67181 3.15902 2.34912 3.15902 2.15016 3.35837C1.95094 3.55772 1.95094 3.88104 2.15016 4.08039L8.03439 9.97638L7.77447 10.2371C7.64996 10.3618 7.44737 10.3618 7.32285 10.2371L2.04277 4.94692C1.81709 4.7208 1.51696 4.59605 1.19764 4.59605C0.878319 4.59605 0.578194 4.7208 0.352516 4.94692C-0.0895019 5.3898 -0.119333 6.08532 0.282997 6.56484L6.10523 13.4992C6.11898 13.5158 6.13402 13.5314 6.14985 13.5459Z" fill="#352F55"/>
</g>
<defs>
<clipPath id="clip0">
<rect width="34" height="34" fill="white"/>
</clipPath>
</defs>
</svg>
