<svg width="14" height="14" viewBox="0 0 14 14" fill="none" xmlns="http://www.w3.org/2000/svg">
<path d="M11.0508 4.6807C11.8636 5.2936 12.533 6.0864 13 6.9999C11.8853 9.18039 9.617 10.6732 7 10.6732C6.40553 10.6732 5.82904 10.5961 5.27998 10.4515L6.3657 9.36579C6.56801 9.41989 6.78063 9.44874 7 9.44874C8.35245 9.44874 9.44883 8.35236 9.44883 6.99991C9.44883 6.78054 9.41999 6.56791 9.36589 6.3656L11.0508 4.6807ZM8.72002 3.5483C8.17096 3.40368 7.59447 3.32665 7 3.32665C4.383 3.32665 2.11465 4.81941 1 6.9999C1.46698 7.91341 2.13645 8.70621 2.94921 9.3191L4.63411 7.6342C4.58001 7.4319 4.55117 7.21927 4.55117 6.9999C4.55117 5.64745 5.64755 4.55107 7 4.55107C7.21937 4.55107 7.43199 4.57991 7.6343 4.63402L8.72002 3.5483ZM10.8961 2.23804L11.7619 3.10383L3.10393 11.7618L2.23813 10.896L10.8961 2.23804Z" fill="#7E7E7E"/>
</svg>
