<svg width="42" height="42" viewBox="0 0 42 42" fill="none" xmlns="http://www.w3.org/2000/svg">
<path d="M21 5.90624C24.7131 5.90367 28.2964 7.27225 31.0624 9.74941L31.9377 8.77143C28.9296 6.08109 25.0356 4.59375 21 4.59375C16.9644 4.59375 13.0704 6.08109 10.0624 8.77143L10.9377 9.74941C13.7036 7.27222 17.2869 5.90364 21 5.90624Z" fill="#352F55"/>
<path d="M21 36.0937C18.8587 36.0928 16.742 35.6368 14.7903 34.7557C12.8387 33.8746 11.0966 32.5887 9.67969 30.9832L8.69531 31.8517C10.2349 33.5974 12.1284 34.9954 14.2499 35.9531C16.3714 36.9107 18.6724 37.406 21 37.406C23.3276 37.406 25.6286 36.9107 27.7501 35.9531C29.8716 34.9954 31.7651 33.5974 33.3047 31.8517L32.3203 30.9832C30.9034 32.5887 29.1613 33.8746 27.2097 34.7557C25.258 35.6367 23.1413 36.0928 21 36.0937Z" fill="#352F55"/>
<path d="M32.0019 19.1399C32.1047 19.7546 32.1563 20.3768 32.1562 21.0001C32.1572 22.1344 31.9846 23.2622 31.6443 24.3442C31.4042 24.043 31.1013 23.7976 30.7569 23.6251C29.8775 23.1806 28.9473 22.845 27.9868 22.6256C29.1797 21.5641 29.9447 20.1042 30.1388 18.5192C30.3328 16.9342 29.9425 15.3329 29.041 14.0149C28.1394 12.697 26.7884 11.7528 25.2408 11.3593C23.6933 10.9657 22.0553 11.1496 20.6336 11.8767C20.2675 11.5598 19.8291 11.3378 19.3569 11.2303C18.8847 11.1228 18.3934 11.1331 17.9261 11.2604C17.4589 11.3877 17.0302 11.6279 16.6777 11.96C16.3253 12.2921 16.0599 12.7058 15.9051 13.1646C15.4823 13.0951 15.0494 13.1184 14.6364 13.2327C14.2234 13.3471 13.8403 13.5499 13.5134 13.827C13.1866 14.1041 12.9239 14.449 12.7435 14.8377C12.5631 15.2264 12.4694 15.6497 12.4687 16.0782C12.4683 16.4669 12.5451 16.8518 12.6946 17.2106C12.6561 17.231 12.6167 17.2516 12.5769 17.2722C12.2088 17.4636 11.7915 17.6806 11.4953 18.0876C11.2013 18.4915 11.1233 18.9545 11.0544 19.363C11.0295 19.5382 10.9926 19.7114 10.9438 19.8814C10.8858 20.0392 10.8168 20.1927 10.7372 20.3408C10.5492 20.7148 10.3359 21.1388 10.3359 21.6563C10.3359 22.1738 10.5492 22.5978 10.7372 22.9718C10.8168 23.1199 10.8858 23.2734 10.9437 23.4312C10.9925 23.6012 11.0294 23.7744 11.0543 23.9495C11.1232 24.3581 11.2013 24.8212 11.4953 25.2252C11.7915 25.6321 12.209 25.8491 12.5769 26.0406C12.7341 26.117 12.8857 26.2043 13.0306 26.3021C13.1657 26.4083 13.2932 26.5238 13.4121 26.6478C13.7088 26.9412 14.0451 27.2736 14.5301 27.4311C14.9981 27.5831 15.4592 27.5148 15.8661 27.4547C16.0446 27.4234 16.2251 27.4046 16.4062 27.3985C16.5874 27.4046 16.7679 27.4233 16.9464 27.4545C16.9847 27.4601 17.0233 27.4658 17.0624 27.4714C16.94 27.6705 16.8509 27.8881 16.7984 28.1159C16.7373 28.3574 16.7311 28.6096 16.7806 28.8539C16.83 29.0981 16.9338 29.3281 17.0841 29.5268C17.6977 30.3217 18.8774 30.5329 19.8927 30.0272C21.0512 29.4442 22.3301 29.1406 23.6269 29.1409C24.9238 29.1412 26.2025 29.4453 27.3607 30.0288C27.398 30.0474 27.4355 30.065 27.4732 30.0817C25.5857 31.4334 23.3217 32.159 21 32.1563C14.8485 32.1563 9.84375 27.1517 9.84375 21.0001C9.84375 14.8485 14.8485 9.84381 21 9.84381C23.4449 9.83593 25.8235 10.6389 27.7634 12.127C29.6634 13.5812 31.0497 15.604 31.7203 17.9008L32.9814 17.5369C32.2321 14.97 30.6831 12.7093 28.5599 11.0838C26.3916 9.4203 23.7329 8.52264 21 8.53131C14.1247 8.53131 8.53125 14.1248 8.53125 21.0001C8.53125 27.8753 14.1247 33.4688 21 33.4688C24.207 33.4711 27.2906 32.2334 29.6061 30.0145C29.8222 29.8905 30.012 29.7254 30.1646 29.5284C30.2297 29.4447 30.2862 29.3547 30.3332 29.2596C32.3555 26.9839 33.4714 24.0445 33.4687 21.0001C33.4689 20.304 33.4112 19.6092 33.2965 18.9227L32.0019 19.1399ZM30.7945 25.5164C30.8101 25.5699 30.8143 25.626 30.8067 25.6812C30.7991 25.7364 30.78 25.7894 30.7505 25.8367C30.5264 26.127 30.0083 26.1839 29.5711 25.9667C27.5217 24.9356 25.1714 24.6706 22.9439 25.2194L22.9317 25.2201V25.2225C22.2377 25.3941 21.5653 25.6435 20.9272 25.966C20.4893 26.1842 19.9707 26.1274 19.745 25.8351C19.7159 25.7879 19.6971 25.7352 19.6897 25.6802C19.6824 25.6253 19.6866 25.5694 19.7023 25.5162C19.7515 25.2967 19.9429 24.9924 20.3321 24.796C21.8572 24.0282 23.541 23.6283 25.2485 23.6283C26.956 23.6283 28.6398 24.0282 30.1649 24.796C30.5538 24.9924 30.7453 25.2969 30.7945 25.5164ZM28.875 17.7188C28.8768 18.6687 28.6202 19.6012 28.1326 20.4164C27.6449 21.2316 26.9447 21.8988 26.1069 22.3464C24.7973 22.2547 23.4816 22.3734 22.2096 22.6979C22.3753 22.375 22.4665 22.0191 22.4766 21.6563C22.4766 21.1388 22.2633 20.7148 22.0753 20.3408C21.9957 20.1927 21.9267 20.0392 21.8688 19.8814C21.8406 19.7906 21.8179 19.6981 21.8009 19.6045C22.2361 20.025 22.8033 20.282 23.4063 20.3322C24.0094 20.3823 24.6112 20.2225 25.1099 19.8797C25.6086 19.537 25.9735 19.0323 26.1428 18.4514C26.3121 17.8704 26.2753 17.2488 26.0388 16.6918C25.8022 16.1348 25.3804 15.6767 24.8448 15.3951C24.3092 15.1135 23.6927 15.0257 23.0997 15.1465C22.5068 15.2674 21.9739 15.5895 21.5912 16.0583C21.2085 16.527 20.9997 17.1137 21 17.7188C21 17.7289 21 17.739 21 17.7491C20.7639 17.5618 20.5075 17.4018 20.2355 17.2722C20.0783 17.1958 19.9266 17.1084 19.7817 17.0107C19.7395 16.98 19.6965 16.9446 19.6527 16.9059C20.0376 16.7752 20.3914 16.5664 20.6919 16.2926C20.9923 16.0189 21.2331 15.6861 21.399 15.315C21.5649 14.9439 21.6524 14.5426 21.6561 14.1361C21.6597 13.7296 21.5794 13.3268 21.4202 12.9528C22.1107 12.6317 22.8634 12.4665 23.625 12.4688C25.0169 12.4704 26.3514 13.024 27.3356 14.0082C28.3198 14.9925 28.8734 16.3269 28.875 17.7188ZM22.3125 17.7188C22.3125 17.4592 22.3895 17.2055 22.5337 16.9896C22.6779 16.7738 22.8829 16.6056 23.1227 16.5062C23.3626 16.4069 23.6265 16.3809 23.8811 16.4315C24.1357 16.4822 24.3695 16.6072 24.5531 16.7907C24.7366 16.9743 24.8616 17.2082 24.9123 17.4628C24.9629 17.7174 24.9369 17.9813 24.8376 18.2211C24.7383 18.4609 24.57 18.6659 24.3542 18.8101C24.1383 18.9543 23.8846 19.0313 23.625 19.0313C23.277 19.0309 22.9434 18.8925 22.6974 18.6464C22.4513 18.4004 22.3129 18.0668 22.3125 17.7188ZM18.7031 12.4688C19.0276 12.4688 19.3448 12.565 19.6146 12.7453C19.8844 12.9256 20.0947 13.1818 20.2189 13.4816C20.343 13.7814 20.3755 14.1113 20.3122 14.4295C20.2489 14.7478 20.0927 15.0401 19.8632 15.2695C19.6338 15.499 19.3414 15.6552 19.0232 15.7185C18.7049 15.7818 18.3751 15.7494 18.0753 15.6252C17.7755 15.501 17.5193 15.2907 17.339 15.0209C17.1587 14.7511 17.0625 14.4339 17.0625 14.1094C17.063 13.6745 17.236 13.2575 17.5436 12.9499C17.8511 12.6423 18.2682 12.4693 18.7031 12.4688ZM15.4219 14.4376C15.5398 14.4374 15.6573 14.4499 15.7726 14.4748C15.8238 14.8827 15.9595 15.2755 16.1712 15.6279C16.3828 15.9804 16.6656 16.2848 17.0016 16.5218C16.919 16.8158 16.756 17.0809 16.5309 17.2873C16.3059 17.4937 16.0277 17.6332 15.7276 17.6901C15.4276 17.747 15.1177 17.719 14.8327 17.6093C14.5477 17.4996 14.299 17.3125 14.1145 17.0692C13.9301 16.8258 13.8172 16.5358 13.7886 16.2317C13.76 15.9277 13.8169 15.6217 13.9527 15.3483C14.0886 15.0748 14.2981 14.8446 14.5576 14.6837C14.8172 14.5229 15.1165 14.4376 15.4219 14.4376ZM16.4062 26.086C16.1608 26.0911 15.916 26.1145 15.674 26.1561C15.3843 26.199 15.1108 26.2395 14.9358 26.1825C14.7471 26.1212 14.5468 25.9236 14.3351 25.7142C14.1702 25.5431 13.9924 25.3848 13.8032 25.2407C13.606 25.1036 13.3985 24.9816 13.1827 24.876C12.9198 24.7392 12.6713 24.61 12.5569 24.4528C12.4445 24.2983 12.398 24.0227 12.3488 23.7309C12.3143 23.4922 12.262 23.2563 12.1924 23.0254C12.115 22.804 12.0206 22.5888 11.9102 22.3819C11.7754 22.1149 11.6484 21.8625 11.6484 21.6563C11.6484 21.4502 11.7754 21.1977 11.9099 20.9303C12.0204 20.7234 12.1147 20.5083 12.1921 20.2868C12.2617 20.0559 12.314 19.8201 12.3486 19.5813C12.3978 19.2896 12.4441 19.0142 12.5565 18.8595C12.6714 18.7022 12.9194 18.573 13.1824 18.4363C13.2752 18.388 13.3694 18.339 13.4634 18.2863C13.8109 18.5949 14.2265 18.8171 14.6761 18.9348C15.1258 19.0524 15.5969 19.0621 16.0511 18.9632C16.5052 18.8643 16.9296 18.6595 17.2896 18.3654C17.6496 18.0714 17.9351 17.6966 18.1228 17.2713C18.247 17.3734 18.3655 17.4824 18.4775 17.5979C18.6424 17.7691 18.8203 17.9274 19.0093 18.0715C19.2067 18.2086 19.4141 18.3306 19.6299 18.4363C19.8929 18.573 20.1414 18.7022 20.2558 18.8595C20.3682 19.0139 20.4146 19.2895 20.4638 19.5813C20.4984 19.8201 20.5506 20.0559 20.6203 20.2868C20.6977 20.5082 20.792 20.7234 20.9025 20.9303C21.0371 21.1978 21.1641 21.4502 21.1641 21.6563C21.1641 21.8625 21.0371 22.1149 20.9026 22.3823C20.7921 22.5892 20.6978 22.8043 20.6204 23.0257C20.5976 23.096 20.577 23.1687 20.5576 23.2487C20.2815 23.3635 20.0092 23.4888 19.7405 23.6245C19.064 23.9657 18.5711 24.5651 18.4218 25.2279C18.378 25.4181 18.3645 25.6141 18.3819 25.8086C18.2054 25.9808 18.0374 26.1305 17.8771 26.1825C17.7018 26.2394 17.4283 26.199 17.1388 26.1561C16.8967 26.1145 16.6518 26.0911 16.4062 26.086ZM27.9496 28.8556C26.6087 28.1804 25.1283 27.8286 23.627 27.8283C22.1257 27.828 20.6451 28.1793 19.3039 28.8539C18.866 29.0721 18.3474 29.0154 18.1218 28.7226C18.0927 28.6754 18.0738 28.6226 18.0665 28.5677C18.0591 28.5127 18.0633 28.4568 18.0789 28.4036C18.1282 28.1842 18.3196 27.8799 18.7088 27.6835C18.9994 27.5366 19.2989 27.4017 19.6029 27.281C19.9151 27.387 20.2454 27.429 20.5742 27.4045C20.903 27.38 21.2234 27.2896 21.5165 27.1385C22.0346 26.8766 22.5791 26.6704 23.1407 26.5233C23.5084 26.507 23.8767 26.5093 24.2443 26.53C25.7412 26.6128 27.2046 27.0056 28.5418 27.6836C28.9305 27.8799 29.1218 28.1839 29.1712 28.4038C29.1843 28.4597 29.1885 28.5173 29.1834 28.5745C29.0724 28.6944 28.9589 28.8118 28.8428 28.9267C28.6967 28.9752 28.5424 28.9939 28.389 28.9817C28.2356 28.9695 28.0861 28.9266 27.9496 28.8556Z" fill="#352F55"/>
<path d="M39.375 3.28125V9.84375H37.4062V3.28125H36.0938V9.84375H34.125V3.28125H32.8125V14.1094C32.8132 14.6512 33.0052 15.1755 33.3546 15.5897C33.704 16.0038 34.1884 16.2814 34.7224 16.3734L34.1293 35.9443C34.1265 35.9935 34.125 36.0435 34.125 36.0936C34.125 36.7898 34.4016 37.4575 34.8938 37.9497C35.3861 38.442 36.0538 38.7186 36.75 38.7186C37.4462 38.7186 38.1139 38.442 38.6062 37.9497C39.0984 37.4575 39.375 36.7898 39.375 36.0936C39.375 36.0435 39.3735 35.9937 39.3707 35.9443L39.2355 31.4801L37.9237 31.5199L38.0592 35.9933C38.0592 35.9999 38.0597 36.0065 38.0601 36.013C38.0617 36.0397 38.0626 36.0667 38.0626 36.0938C38.0626 36.4418 37.9243 36.7757 37.6782 37.0218C37.432 37.268 37.0982 37.4062 36.7501 37.4062C36.402 37.4062 36.0681 37.268 35.822 37.0218C35.5759 36.7757 35.4376 36.4418 35.4376 36.0938C35.4376 36.0667 35.4385 36.0397 35.44 36.013C35.4405 36.0065 35.4408 35.9999 35.4409 35.9933L36.0344 16.4062H37.4656L37.8839 30.2074L39.1958 30.1676L38.7774 16.3736C39.3115 16.2816 39.7959 16.0041 40.1454 15.5898C40.4948 15.1756 40.6868 14.6513 40.6875 14.1094V3.28125H39.375ZM39.375 14.1094C39.3747 14.3704 39.2709 14.6206 39.0864 14.8051C38.9018 14.9897 38.6516 15.0935 38.3906 15.0938H35.1094C34.8484 15.0935 34.5982 14.9897 34.4136 14.8051C34.2291 14.6206 34.1253 14.3704 34.125 14.1094V11.1562H39.375V14.1094Z" fill="#352F55"/>
<path d="M7.25566 15.6468C8.52715 14.555 9.37502 12.3902 9.37502 9.84375C9.37502 6.16383 7.6043 3.28125 5.34376 3.28125C3.08323 3.28125 1.3125 6.16383 1.3125 9.84375C1.3125 12.2664 2.07998 14.3435 3.24942 15.48L3.10259 20.3239L4.41443 20.3636L4.53821 16.2806C4.99963 16.4282 5.49275 16.4461 5.96367 16.3324L6.55946 35.9933C6.55946 35.9998 6.55996 36.0064 6.56037 36.013C6.56193 36.0396 6.56283 36.0666 6.56283 36.0937C6.56283 36.4418 6.42455 36.7756 6.17841 37.0217C5.93226 37.2679 5.59842 37.4062 5.25033 37.4062C4.90223 37.4062 4.56839 37.2679 4.32225 37.0217C4.07611 36.7756 3.93783 36.4418 3.93783 36.0937C3.93783 36.0666 3.93873 36.0396 3.94029 36.013C3.94029 36.0064 3.94103 35.9998 3.94119 35.9933L4.37497 21.676L3.06313 21.6363L2.62927 35.9445C2.62648 35.9937 2.625 36.0437 2.625 36.0938C2.625 36.7899 2.90156 37.4576 3.39384 37.9499C3.88613 38.4422 4.55381 38.7188 5.25 38.7188C5.94619 38.7188 6.61387 38.4422 7.10616 37.9499C7.59844 37.4576 7.875 36.7899 7.875 36.0938C7.875 36.0437 7.87352 35.9938 7.87073 35.9445L7.25566 15.6468ZM2.625 9.84375C2.625 6.70335 4.03077 4.59375 5.34376 4.59375C6.65675 4.59375 8.06252 6.70335 8.06252 9.84375C8.06252 12.9842 6.65667 15.0938 5.34376 15.0938C4.03085 15.0938 2.625 12.9842 2.625 9.84375Z" fill="#352F55"/>
<path d="M13.815 20.1362L13.1588 22.105L14.404 22.52L15.0603 20.5513L13.815 20.1362Z" fill="#352F55"/>
<path d="M17.5112 23.0024L15.5425 23.6587L15.9575 24.9038L17.9263 24.2476L17.5112 23.0024Z" fill="#352F55"/>
<path d="M17.4265 19.7976L16.6985 20.8896L18.6672 22.2021L19.3953 21.1101L17.4265 19.7976Z" fill="#352F55"/>
</svg>
