<svg width="206" height="206" viewBox="0 0 206 206" fill="none" xmlns="http://www.w3.org/2000/svg">
<path d="M59.5753 126.81C64.982 126.932 69.2829 131.059 69.2829 131.059C69.2829 131.059 64.8179 134.988 59.4112 134.866C54.0046 134.744 49.7036 130.617 49.7036 130.617C49.7036 130.617 54.1686 126.688 59.5753 126.81Z" fill="#FF6584"/>
<path d="M32.552 109.291C37.3226 111.837 42.793 110.111 42.793 110.111C42.793 110.111 40.5286 104.255 35.758 101.709C30.9874 99.1625 25.5171 100.889 25.5171 100.889C25.5171 100.889 27.7814 106.745 32.552 109.291Z" fill="#FF6584"/>
<path d="M32.654 106.127C38.0607 105.612 42.7932 109.176 42.7932 109.176C42.7932 109.176 38.7597 113.573 33.353 114.087C27.9463 114.602 23.2139 111.038 23.2139 111.038C23.2139 111.038 27.2474 106.641 32.654 106.127Z" fill="#3F3D56"/>
<path d="M52.0627 107.437C51.5238 112.843 55.0621 117.593 55.0621 117.593C55.0621 117.593 59.4741 113.577 60.013 108.17C60.552 102.763 57.0137 98.0137 57.0137 98.0137C57.0137 98.0137 52.6016 102.03 52.0627 107.437Z" fill="#3F3D56"/>
<path d="M69.3231 189C67.8333 186.86 67.0205 184.331 66.9879 181.734C66.9998 177.956 68.8458 174.52 70.631 171.196C70.9558 170.592 71.2796 169.989 71.5911 169.387C72.8877 166.951 73.9212 164.386 74.6745 161.736C77.3616 151.863 74.7075 140.204 67.5747 130.547C61.8925 122.854 53.4098 116.12 41.6416 109.96L41.8714 109.531C53.707 115.726 62.2444 122.506 67.9715 130.261C75.1911 140.035 77.8743 151.849 75.149 161.862C74.3867 164.545 73.3407 167.141 72.0284 169.608C71.7158 170.212 71.3909 170.817 71.0649 171.424C69.3077 174.695 67.4907 178.078 67.4792 181.735C67.5117 184.235 68.2952 186.669 69.7302 188.728L69.3231 189Z" fill="#3F3D56"/>
<path d="M18.6069 109.531C21.1512 109.531 23.2138 107.468 23.2138 104.924C23.2138 102.38 21.1512 100.317 18.6069 100.317C16.0626 100.317 14 102.38 14 104.924C14 107.468 16.0626 109.531 18.6069 109.531Z" fill="#3F3D56"/>
<path d="M58.2594 50.796C52.8527 50.9182 48.5518 55.0455 48.5518 55.0455C48.5518 55.0455 53.0168 58.9747 58.4234 58.8525C63.8301 58.7303 68.1311 54.603 68.1311 54.603C68.1311 54.603 63.666 50.6738 58.2594 50.796Z" fill="#FF6584"/>
<path d="M85.2825 33.2772C80.5119 35.8237 75.0415 34.0969 75.0415 34.0969C75.0415 34.0969 77.3058 28.2416 82.0764 25.6952C86.847 23.1488 92.3174 24.8755 92.3174 24.8755C92.3174 24.8755 90.053 30.7308 85.2825 33.2772Z" fill="#FF6584"/>
<path d="M85.1806 30.1128C79.774 29.5985 75.0415 33.1618 75.0415 33.1618C75.0415 33.1618 79.075 37.559 84.4817 38.0733C89.8883 38.5876 94.6208 35.0243 94.6208 35.0243C94.6208 35.0243 90.5873 30.6271 85.1806 30.1128Z" fill="#3F3D56"/>
<path d="M65.7718 31.423C66.3108 36.8296 62.7725 41.5793 62.7725 41.5793C62.7725 41.5793 58.3604 37.563 57.8215 32.1563C57.2825 26.7497 60.8208 22 60.8208 22C60.8208 22 65.2329 26.0163 65.7718 31.423Z" fill="#3F3D56"/>
<path d="M39.6627 63.8364C42.4374 68.289 41.4828 73.8275 41.4828 73.8275C41.4828 73.8275 36.0294 72.147 33.2546 67.6944C30.4798 63.2419 31.4345 57.7034 31.4345 57.7034C31.4345 57.7034 36.8879 59.3839 39.6627 63.8364Z" fill="#3F3D56"/>
<path d="M48.5118 112.986L48.1048 112.714C49.5396 110.656 50.3231 108.222 50.3556 105.722C50.3442 102.065 48.5274 98.6823 46.7704 95.4113C46.4443 94.8041 46.1193 94.1989 45.8066 93.5941C44.4941 91.1278 43.4481 88.5317 42.6859 85.8486C39.9606 75.8354 42.6438 64.0218 49.8633 54.2469C55.5905 46.4927 64.1281 39.712 75.9635 33.5173L76.1933 33.9466C64.4253 40.1059 55.9424 46.84 50.2601 54.5334C43.1274 64.1905 40.4734 75.85 43.1604 85.7224C43.9137 88.3726 44.9472 90.937 46.2439 93.3731C46.5556 93.9756 46.8795 94.5785 47.2044 95.1835C48.9893 98.5067 50.8351 101.943 50.8469 105.72C50.8144 108.318 50.0016 110.847 48.5118 112.986V112.986Z" fill="#3F3D56"/>
<path d="M99.2275 33.5173C101.772 33.5173 103.834 31.4547 103.834 28.9104C103.834 26.366 101.772 24.3035 99.2275 24.3035C96.6832 24.3035 94.6206 26.366 94.6206 28.9104C94.6206 31.4547 96.6832 33.5173 99.2275 33.5173Z" fill="#3F3D56"/>
<path d="M152.393 37.4773C153.005 40.9137 156.125 42.8532 156.125 42.8532C156.125 42.8532 158.251 39.2212 157.639 35.7848C157.027 32.3484 153.907 30.4088 153.907 30.4088C153.907 30.4088 151.781 34.0408 152.393 37.4773Z" fill="#FF6584"/>
<path d="M153.816 36.025C156.4 38.5463 156.361 42.6578 156.361 42.6578C156.361 42.6578 152.132 42.6816 149.548 40.1603C146.964 37.639 147.003 33.5275 147.003 33.5275C147.003 33.5275 151.232 33.5038 153.816 36.025Z" fill="#3F3D56"/>
<path d="M161.655 47.4068C158.677 49.4384 157.647 53.1397 157.647 53.1397C157.647 53.1397 161.446 53.5471 164.424 51.5155C167.403 49.4839 168.433 45.7826 168.433 45.7826C168.433 45.7826 164.634 45.3752 161.655 47.4068Z" fill="#3F3D56"/>
<path d="M155.797 74.7167C152.263 75.2102 149.763 78.1161 149.763 78.1161C149.763 78.1161 152.995 80.222 156.529 79.7285C160.064 79.2351 162.564 76.3291 162.564 76.3291C162.564 76.3291 159.332 74.2232 155.797 74.7167Z" fill="#3F3D56"/>
<path d="M126.75 91.0901L127.063 91.1831C127.511 89.5718 128.429 88.135 129.7 87.0552C131.583 85.5059 134.092 84.999 136.518 84.5089C136.969 84.4179 137.418 84.3272 137.861 84.2303C139.685 83.8545 141.463 83.2868 143.165 82.5366C149.466 79.6758 154.396 73.2759 156.354 65.4169C157.906 59.1825 157.766 51.921 155.925 43.2176L155.607 43.2823C157.437 51.9361 157.578 59.1497 156.038 65.3353C154.104 73.0996 149.241 79.419 143.028 82.2396C141.347 82.9804 139.591 83.541 137.789 83.9121C137.347 84.0085 136.9 84.0988 136.451 84.1895C133.986 84.6875 131.437 85.2024 129.492 86.8027C128.171 87.9239 127.217 89.4162 126.75 91.0901V91.0901Z" fill="#3F3D56"/>
<path d="M145.624 30.7745C144.568 29.4982 144.919 27.4643 146.408 26.2317C147.897 24.9991 149.96 25.0346 151.017 26.3109C152.073 27.5872 151.723 29.621 150.234 30.8536C148.745 32.0862 146.681 32.0508 145.624 30.7745Z" fill="#3F3D56"/>
<path d="M50.432 65.024L73.76 64.448C74.72 64.448 77.168 67.088 81.104 72.368C85.136 77.648 89.648 84.8 94.64 93.824C99.728 102.752 103.616 111.248 106.304 119.312C107.744 116.816 109.904 113.12 112.784 108.224C115.664 103.232 117.824 99.44 119.264 96.848C120.8 94.16 122.528 90.992 124.448 87.344C128 80.816 130.256 75.344 131.216 70.928C129.2 70.544 125.312 70.352 119.552 70.352C119.264 69.68 119.12 68.912 119.12 68.048C119.12 67.184 119.264 66.464 119.552 65.888C125.888 66.176 131.984 66.32 137.84 66.32C143.696 66.32 148.832 65.936 153.248 65.168C153.824 66.128 154.112 66.944 154.112 67.616L153.824 68.768C151.232 69.536 148.256 71.168 144.896 73.664C140.576 76.736 134.144 84.848 125.6 98C117.056 111.152 112.16 120.128 110.912 124.928C110.144 126.944 109.76 132.512 109.76 141.632C109.76 150.656 110.24 158.432 111.2 164.96C115.136 165.632 120.656 165.968 127.76 165.968C128.048 166.64 128.192 167.408 128.192 168.272L127.76 170.432L104.864 170C93.728 170 84.512 170.384 77.216 171.152C76.736 170.576 76.496 169.76 76.496 168.704L76.64 167.552C85.856 166.112 91.472 163.952 93.488 161.072C95.504 158.192 96.512 152.768 96.512 144.8C96.512 136.832 95.84 130.256 94.496 125.072C93.152 119.792 89.216 111.68 82.688 100.736C76.256 89.792 70.4 81.44 65.12 75.68C63.008 73.28 60.992 71.696 59.072 70.928C57.248 70.064 54.368 69.536 50.432 69.344C50.144 68.768 50 68 50 67.04C50 65.984 50.144 65.312 50.432 65.024Z" fill="#3F3D56"/>
<circle cx="103" cy="103" r="97.5" stroke="#3F3D56" stroke-width="11"/>
</svg>
