<svg width="22" height="26" viewBox="0 0 22 26" fill="none" xmlns="http://www.w3.org/2000/svg">
<path d="M19.25 3.66667H16.7887C15.756 1.50272 13.5529 0 11 0C8.44708 0 6.24403 1.50272 5.21125 3.66667H2.75C1.23353 3.66667 0 4.90019 0 6.41667V22.9167C0 24.4331 1.23353 25.6667 2.75 25.6667H19.25C20.7665 25.6667 22 24.4331 22 22.9167V6.41667C22 4.90019 20.7665 3.66667 19.25 3.66667ZM11 1.83333C13.5272 1.83333 15.5833 3.88942 15.5833 6.41667C15.5833 8.94392 13.5272 11 11 11C8.47275 11 6.41667 8.94392 6.41667 6.41667C6.41667 3.88942 8.47275 1.83333 11 1.83333ZM18.3333 21.5417C18.3333 21.7947 18.128 22 17.875 22H4.125C3.872 22 3.66667 21.7947 3.66667 21.5417V16.0417C3.66667 15.7884 3.872 15.5833 4.125 15.5833H17.875C18.128 15.5833 18.3333 15.7884 18.3333 16.0417V21.5417Z" fill="white"/>
<path d="M11.9676 6.11116C11.9676 6.61747 11.5572 7.02783 11.0509 7.02783C10.5446 7.02783 10.1343 6.61747 10.1343 6.11116C10.1343 6.03936 10.1596 5.97611 10.1749 5.90919H10.1566L10.8597 3.52494C10.9211 3.30647 11.1811 3.30647 11.2422 3.52494L11.9447 5.90644H11.9264C11.9423 5.97427 11.9676 6.03874 11.9676 6.11116Z" fill="white"/>
</svg>
