<svg width="36" height="33" viewBox="0 0 36 33" fill="none" xmlns="http://www.w3.org/2000/svg">
<path fill-rule="evenodd" clip-rule="evenodd" d="M14 1C14 0.447715 14.4477 0 15 0H22C22.5523 0 23 0.447715 23 1V5.78794C24.0792 6.14172 25.0942 6.60669 26.026 7.16649L29.738 4.57277C30.1907 4.25644 30.8142 4.367 31.1305 4.81972L35.1399 10.5577C35.4562 11.0105 35.3456 11.6339 34.8929 11.9502L31.626 14.233C31.8706 15.1213 32 16.0477 32 17C32 18.4071 31.7175 19.7576 31.1984 21.0121L34.1651 23.5397C34.5855 23.8979 34.6359 24.529 34.2777 24.9494L29.7381 30.2778C29.3799 30.6982 28.7488 30.7486 28.3284 30.3905L24.8807 27.4531C23.978 27.8906 23.013 28.2446 22 28.5031V32C22 32.5523 21.5523 33 21 33H14C13.4477 33 13 32.5523 13 32V28.2121C11.8493 27.8348 10.7716 27.3312 9.78986 26.721L5.97462 29.3868C5.5219 29.7032 4.89847 29.5926 4.58214 29.1399L0.572764 23.4019C0.256433 22.9491 0.366996 22.3257 0.819714 22.0094L4.32016 19.5635C4.11047 18.7375 4 17.8798 4 17C4 15.8599 4.1855 14.7569 4.53204 13.712L0.761193 10.4993C0.340797 10.1411 0.290353 9.50999 0.648523 9.08959L5.18819 3.76123C5.54636 3.34084 6.17751 3.29039 6.59791 3.64856L10.4231 6.90759C11.5198 6.30144 12.7216 5.82304 14 5.49693V1ZM11.3494 17C11.3494 20.1483 14.327 22.7005 18 22.7005C21.673 22.7005 24.6506 20.1483 24.6506 17C24.6506 13.8517 21.673 11.2995 18 11.2995C14.327 11.2995 11.3494 13.8517 11.3494 17Z" fill="#1C133F"/>
</svg>
