<svg width="50" height="34" viewBox="0 0 50 34" fill="none" xmlns="http://www.w3.org/2000/svg">
<path d="M49.0234 12.7422H45.66C45.7389 12.5949 45.8156 12.446 45.8886 12.2946C46.8198 10.3613 47.172 8.27783 46.8801 6.42792C46.5675 4.44628 45.5622 2.95371 44.0496 2.22529C42.5371 1.49677 40.7433 1.6413 38.9989 2.63212C38.5762 2.87216 38.1687 3.15683 37.78 3.47929C35.9858 0.775287 33.2723 -0.550396 30.8635 0.214448C28.7861 0.874311 27.4098 2.91826 27.1417 5.59882C27.015 5.56972 26.8871 5.54404 26.7568 5.52578C25.8806 5.40263 25.0044 5.53681 24.1722 5.90497C23.4118 3.45712 21.7416 1.77402 19.6823 1.48574C17.4166 1.16865 15.165 2.59619 13.7811 5.11855C12.4243 3.98163 10.8718 3.21523 9.32393 2.93359C7.35039 2.5746 5.60938 3.03027 4.42158 4.21748C3.23477 5.40488 2.77881 7.14579 3.13789 9.11953C3.36328 10.3584 3.89941 11.6002 4.68672 12.7422H0.976562C0.437207 12.7422 0 13.1795 0 13.7187C0 23.266 8.60713 31.4396 20.4657 33.1535C20.9993 33.2306 21.4948 32.8604 21.572 32.3267C21.6491 31.7929 21.279 31.2976 20.7452 31.2204C13.1079 30.1166 6.94043 26.1657 3.9374 20.9486H46.0627C43.0597 26.1656 36.8922 30.1166 29.2549 31.2204C28.7211 31.2976 28.351 31.7929 28.4281 32.3267C28.4984 32.8132 28.9159 33.1636 29.3934 33.1636C29.4398 33.1636 29.4869 33.1602 29.5343 33.1534C41.3929 31.4396 50 23.266 50 13.7187C50 13.1794 49.5628 12.7422 49.0234 12.7422ZM43.2022 3.98496C44.1201 4.42695 44.7411 5.40273 44.9509 6.73232C45.1814 8.19374 44.8895 9.86806 44.1291 11.4468C43.9088 11.9038 43.6559 12.3377 43.3751 12.7422H39.8784L42.6408 7.13906C42.8793 6.65537 42.6805 6.06982 42.1968 5.83134C41.7133 5.59296 41.1276 5.79169 40.8891 6.27539L37.7009 12.7422H35.9891C35.7266 11.2851 36.0087 9.53242 36.7891 7.91171C38.2759 4.82509 41.2129 3.02675 43.2022 3.98496ZM31.4549 2.07587C33.0784 1.56005 35.0781 2.74121 36.377 4.91669C35.8614 5.56152 35.4058 6.28281 35.0293 7.06425C34.8102 7.51943 34.6248 7.98134 34.4711 8.44511L33.4079 5.30576C33.2349 4.79492 32.6804 4.5207 32.1697 4.69404C31.6589 4.86699 31.385 5.42138 31.558 5.93232L33.8644 12.7422H31.686C31.6356 10.0753 30.6299 7.79189 29.0471 6.53056C29.0632 4.29931 30.0008 2.53779 31.4549 2.07587ZM26.4856 7.45996C28.3312 7.71855 29.6654 9.96298 29.7328 12.7422H21.6423C21.9305 11.1733 22.5841 9.77636 23.5066 8.77529C24.4187 7.78544 25.4762 7.31787 26.4856 7.45996ZM19.4115 3.41992C20.8453 3.6206 22.0077 5.02822 22.4604 7.06074C22.3281 7.18486 22.1975 7.31357 22.0703 7.45165C20.8292 8.79843 19.978 10.6733 19.6625 12.7422H17.6853L19.4628 7.33222C19.6312 6.81992 19.3522 6.26796 18.8398 6.0997C18.3275 5.93134 17.7756 6.21005 17.6072 6.72265L16.8232 9.10859C16.4398 8.23349 15.9058 7.37421 15.2352 6.57294C16.1983 4.48046 17.8602 3.20312 19.4115 3.41992ZM5.80264 5.59853C7.36455 4.0371 10.7308 4.76484 13.1531 7.1872C14.8433 8.87724 15.7451 11.0195 15.5468 12.7421H7.19199C4.93066 10.3384 4.28564 7.1163 5.80264 5.59853ZM47.0132 18.9956H2.98672C2.43467 17.6209 2.09199 16.1795 1.9874 14.6953H48.0125C47.9079 16.1795 47.5653 17.6209 47.0132 18.9956Z" fill="#352F55"/>
<path d="M25 33.4771C25.5393 33.4771 25.9766 33.0398 25.9766 32.5005C25.9766 31.9611 25.5393 31.5239 25 31.5239C24.4607 31.5239 24.0234 31.9611 24.0234 32.5005C24.0234 33.0398 24.4607 33.4771 25 33.4771Z" fill="#352F55"/>
</svg>
