<svg width="26" height="22" viewBox="0 0 26 22" fill="none" xmlns="http://www.w3.org/2000/svg">
<path d="M13.4191 0.835551C13.3491 0.634633 13.1596 0.5 12.9469 0.5C12.7341 0.5 12.5447 0.634633 12.4747 0.835551L9.94439 8.10081H1.73332C1.5137 8.10081 1.31979 8.24413 1.25534 8.45408C1.19089 8.66404 1.27099 8.89147 1.45279 9.01469L8.06515 13.4967L5.54434 20.7347C5.47345 20.9383 5.54097 21.1644 5.71189 21.2957C5.88281 21.427 6.11864 21.434 6.29706 21.3131L12.9469 16.8057L19.5967 21.3131C19.7751 21.434 20.0109 21.427 20.1819 21.2957C20.3528 21.1644 20.4203 20.9383 20.3494 20.7347L17.8286 13.4967L24.441 9.01469C24.6228 8.89147 24.7029 8.66404 24.6384 8.45408C24.574 8.24413 24.38 8.10081 24.1604 8.10081H15.9494L13.4191 0.835551Z" fill="#F5F6FA" stroke="#565656" stroke-linejoin="round"/>
</svg>
