<svg width="20" height="25" viewBox="0 0 20 25" fill="none" xmlns="http://www.w3.org/2000/svg">
<path d="M0 0L2.61084 23.6625C2.64737 24.0283 2.81609 24.3674 3.08445 24.6144C3.3528 24.8614 3.70178 24.9988 4.06404 25H15.936C16.2982 24.9988 16.6472 24.8614 16.9156 24.6144C17.1839 24.3674 17.3526 24.0283 17.3892 23.6625L20 0H0ZM16.6256 8.15C15.9897 7.73458 15.2513 7.50931 14.4951 7.5C13.6899 7.51113 12.9059 7.76335 12.2414 8.225C11.5896 8.70477 10.8051 8.96312 10 8.96312C9.19488 8.96312 8.41038 8.70477 7.75862 8.225C7.09412 7.76335 6.31011 7.51113 5.50493 7.5C4.74749 7.51304 4.00904 7.74267 3.37438 8.1625L2.75862 2.5H17.2414L16.6256 8.15Z" fill="white"/>
</svg>
