<svg width="28" height="42" viewBox="0 0 28 42" fill="none" xmlns="http://www.w3.org/2000/svg">
<path d="M0.837016 0C0.363225 0 -0.0165952 0.396796 0.000559052 0.874454C0.452343 13.4235 1.42419 24.94 3.81666 38.7495H10.2827H17.7173H24.1833C26.584 24.8927 27.5498 13.3659 27.9994 0.874454C28.0166 0.396796 27.6368 0 27.163 0L0.837016 0Z" fill="#352F55"/>
<path d="M3.81665 38.7495V40.6841C3.81665 41.3833 4.37864 41.9502 5.07184 41.9502H23.0172C23.7104 41.9502 24.2724 41.3833 24.2724 40.6841V38.7495H3.81665Z" fill="#D5E3F4"/>
<path d="M3.12146 12.4097C3.7088 20.6456 4.6107 28.2283 5.93425 36.2173H22.0657C23.3894 28.2272 24.2913 20.6453 24.8785 12.4097H3.12146Z" fill="#C4C4C4"/>
<path d="M27.163 0H23.8422C24.316 0 24.6958 0.396796 24.6786 0.87437C24.229 13.3659 23.2632 24.8926 20.8625 38.7494H24.1833C26.584 24.8926 27.5498 13.3658 27.9994 0.87437C28.0166 0.396796 27.6368 0 27.163 0Z" fill="#150F2B"/>
<path d="M20.9516 38.7495V40.6841C20.9516 41.3833 20.3896 41.9502 19.6964 41.9502H23.0172C23.7104 41.9502 24.2724 41.3833 24.2724 40.6841V38.7495H20.9516Z" fill="#B3CEEC"/>
<path d="M21.5578 12.4097C20.9705 20.6454 20.0687 28.2273 18.7449 36.2173H22.0657C23.3895 28.2272 24.2914 20.6453 24.8786 12.4097H21.5578Z" fill="white"/>
</svg>
