<svg width="233" height="157" viewBox="0 0 233 157" fill="none" xmlns="http://www.w3.org/2000/svg">
<path d="M46.79 105.68C42.8913 105.68 39.8087 104.467 37.542 102.042C35.298 99.594 34.176 96.5227 34.176 92.828C34.176 89.1107 35.4 86.0393 37.848 83.614C40.296 81.1887 43.424 79.976 47.232 79.976C50.2467 79.976 52.9213 80.35 55.256 81.098C55.3693 81.166 55.426 81.2567 55.426 81.37C55.426 81.4607 55.392 81.812 55.324 82.424C55.0293 84.532 54.8707 86.0733 54.848 87.048C54.508 87.116 54.27 87.15 54.134 87.15C53.998 87.15 53.794 87.1047 53.522 87.014C53.318 85.45 53.114 84.2827 52.91 83.512C52.3207 82.8773 51.4933 82.3333 50.428 81.88C49.3627 81.4267 48.15 81.2 46.79 81.2C44.206 81.2 42.064 82.1067 40.364 83.92C38.6867 85.7333 37.848 88.2153 37.848 91.366C37.848 93.5873 38.2107 95.6727 38.936 97.622C39.684 99.5713 40.7833 101.181 42.234 102.45C43.7073 103.697 45.4527 104.32 47.47 104.32C49.4873 104.32 51.278 103.776 52.842 102.688C53.2727 101.963 53.8053 100.75 54.44 99.05C54.984 99.05 55.4033 99.1633 55.698 99.39C55.3807 101.022 55.1427 102.665 54.984 104.32C54.9613 104.569 54.814 104.717 54.542 104.762C52.366 105.374 49.782 105.68 46.79 105.68ZM66.298 105.102L63.442 105C61.674 105 60.076 105.091 58.648 105.272C58.5347 105.136 58.478 104.943 58.478 104.694L58.512 104.422C59.4414 104.218 60.0647 103.912 60.382 103.504C60.722 103.073 60.9714 102.382 61.13 101.43C61.3114 100.455 61.402 96.8967 61.402 90.754V82.05C61.402 79.9873 61.164 78.7293 60.688 78.276C60.4387 78.0267 60.1214 77.8793 59.736 77.834L58.512 77.698C58.444 77.5847 58.41 77.4487 58.41 77.29C58.41 77.1087 58.444 76.9613 58.512 76.848C60.1214 76.5533 61.368 76.1907 62.252 75.76C62.8414 75.4653 63.51 75.0687 64.258 74.57C64.4847 74.57 64.666 74.6833 64.802 74.91C64.3487 77.7433 64.122 83.0587 64.122 90.856C67.0007 89.2693 69.3014 88.2153 71.024 87.694C72.4974 87.694 73.608 88.238 74.356 89.326C75.104 90.414 75.478 91.876 75.478 93.712L75.41 98.064C75.41 101.94 75.58 103.912 75.92 103.98C76.26 104.025 76.9287 104.048 77.926 104.048C78.0167 104.207 78.062 104.354 78.062 104.49C78.062 104.626 78.0167 104.83 77.926 105.102L74.798 105C72.9167 105 71.4207 105.091 70.31 105.272C70.174 105.091 70.106 104.898 70.106 104.694L70.174 104.422C71.1034 104.218 71.7267 103.912 72.044 103.504C72.3614 103.096 72.5427 102.609 72.588 102.042C72.656 101.475 72.69 100.331 72.69 98.608C72.69 96.8853 72.6787 95.82 72.656 95.412C72.656 94.9813 72.622 94.4373 72.554 93.78C72.5087 93.1 72.4067 92.59 72.248 92.25C72.112 91.8873 71.9307 91.5133 71.704 91.128C71.2507 90.4253 70.446 90.074 69.29 90.074C68.134 90.074 66.8534 90.5387 65.448 91.468C65.244 91.5813 64.9834 91.7513 64.666 91.978C64.3487 92.182 64.1674 92.2953 64.122 92.318C64.0994 93.4513 64.088 94.6527 64.088 95.922C64.088 101.158 64.224 103.821 64.496 103.912C64.7907 104.003 65.3914 104.048 66.298 104.048C66.366 104.207 66.4 104.388 66.4 104.592C66.4 104.796 66.366 104.966 66.298 105.102ZM89.282 103.232C91.1407 103.232 92.784 102.733 94.212 101.736C94.5294 101.849 94.7107 102.087 94.756 102.45L91.084 105.034C90.54 105.465 89.3274 105.68 87.446 105.68C85.5647 105.68 83.9667 104.841 82.652 103.164C81.3374 101.464 80.68 99.322 80.68 96.738C80.68 94.154 81.394 92.114 82.822 90.618C84.25 89.122 85.95 88.1473 87.922 87.694C89.6447 87.694 91.1634 88.272 92.478 89.428C93.2714 90.108 93.8267 90.992 94.144 92.08C94.212 92.352 94.5294 92.4993 95.096 92.522C95.232 92.6807 95.3 92.8507 95.3 93.032C95.3 93.1907 95.2774 93.3607 95.232 93.542C91.2427 94.4713 87.3214 95.1173 83.468 95.48C83.468 98.3813 84.2727 100.557 85.882 102.008C86.7887 102.824 87.922 103.232 89.282 103.232ZM91.424 92.862C91.5374 92.794 91.594 92.7147 91.594 92.624C91.594 92.5107 91.4467 92.1933 91.152 91.672C90.88 91.128 90.3927 90.5613 89.69 89.972C88.9874 89.36 88.2507 89.054 87.48 89.054C86.7094 89.054 86.1427 89.1673 85.78 89.394C84.5107 90.2553 83.7854 91.8193 83.604 94.086C84.828 94.086 86.222 93.9613 87.786 93.712C89.35 93.44 90.5627 93.1567 91.424 92.862ZM106.438 87.694C108.637 87.694 110.45 88.3513 111.878 89.666C111.81 90.0513 111.572 90.4593 111.164 90.89C110.779 91.3207 110.337 91.5927 109.838 91.706C109.113 90.8447 108.388 90.1873 107.662 89.734C106.937 89.2807 106.042 89.054 104.976 89.054C103.934 89.054 102.982 89.7453 102.12 91.128C101.259 92.488 100.828 93.9047 100.828 95.378C100.828 96.8287 101.01 98.132 101.372 99.288C101.758 100.444 102.404 101.419 103.31 102.212C104.217 103.005 105.316 103.402 106.608 103.402C107.923 103.402 109.589 102.971 111.606 102.11C111.81 102.223 111.912 102.45 111.912 102.79L108.614 105.034C108.388 105.17 107.968 105.306 107.356 105.442C106.744 105.601 106.246 105.68 105.86 105.68C103.299 105.68 101.35 104.841 100.012 103.164C98.6752 101.487 98.0065 99.3787 98.0065 96.84C98.0065 95.344 98.2785 94.018 98.8225 92.862C99.3665 91.6833 100.001 90.788 100.726 90.176C101.452 89.5413 102.245 89.02 103.106 88.612C104.489 88 105.6 87.694 106.438 87.694ZM130.088 104.014C130.202 104.037 130.394 104.048 130.666 104.048C130.938 104.048 131.188 104.037 131.414 104.014C131.505 104.241 131.55 104.445 131.55 104.626C131.55 104.785 131.528 104.909 131.482 105C130.44 105.068 129.488 105.193 128.626 105.374C127.788 105.578 127.323 105.68 127.232 105.68C126.711 105.68 124.898 103.164 121.792 98.132C120.591 96.1373 119.922 95.038 119.786 94.834L123.118 92.386C124.365 91.4793 125.521 90.4593 126.586 89.326C125.838 89.1673 125 89.0767 124.07 89.054C124.002 88.918 123.968 88.748 123.968 88.544L124.07 88.136C125.929 88.204 127.153 88.238 127.742 88.238C128.332 88.238 129.193 88.1927 130.326 88.102C130.462 88.2833 130.53 88.5553 130.53 88.918L122.608 94.154C123.787 96.0127 124.909 97.7693 125.974 99.424C127.04 101.056 127.878 102.212 128.49 102.892C129.102 103.572 129.635 103.946 130.088 104.014ZM121.282 105.102L118.426 105C116.658 105 115.06 105.091 113.632 105.272C113.519 105.136 113.462 104.943 113.462 104.694L113.496 104.422C114.426 104.218 115.049 103.912 115.366 103.504C115.706 103.073 115.956 102.382 116.114 101.43C116.296 100.455 116.386 96.8967 116.386 90.754V82.05C116.386 79.9873 116.148 78.7293 115.672 78.276C115.423 78.0267 115.106 77.8793 114.72 77.834L113.496 77.698C113.428 77.5847 113.394 77.4487 113.394 77.29C113.394 77.1087 113.428 76.9613 113.496 76.848C115.106 76.5533 116.352 76.1907 117.236 75.76C117.826 75.4653 118.494 75.0687 119.242 74.57C119.469 74.57 119.65 74.6833 119.786 74.91C119.31 77.8793 119.072 83.1947 119.072 90.856V94.834C119.072 100.795 119.208 103.821 119.48 103.912C119.775 104.003 120.376 104.048 121.282 104.048C121.35 104.207 121.384 104.388 121.384 104.592C121.384 104.796 121.35 104.966 121.282 105.102Z" fill="#F2F2F2"/>
<path d="M170.846 104.102L166.154 104C164.273 104 162.55 104.091 160.986 104.272C160.873 104.136 160.816 103.943 160.816 103.694L160.85 103.422C162.323 103.127 163.207 102.549 163.502 101.688C163.865 100.668 164.046 96.7353 164.046 89.89V88.768L160.68 88.802C160.521 88.7113 160.442 88.5753 160.442 88.394C160.555 88.1673 160.68 87.782 160.816 87.238H164.08C164.103 86.8753 164.171 85.8553 164.284 84.178C164.42 82.478 164.771 81.0387 165.338 79.86C165.927 78.6813 166.573 77.7973 167.276 77.208C167.979 76.596 168.749 76.0973 169.588 75.712C170.812 75.168 171.945 74.896 172.988 74.896C174.053 74.896 175.447 75.3153 177.17 76.154C177.079 76.6753 176.875 77.1853 176.558 77.684C176.263 78.16 175.878 78.4887 175.402 78.67C173.498 77.1287 172.047 76.358 171.05 76.358C170.257 76.358 169.452 77.004 168.636 78.296C167.82 79.588 167.333 81.0047 167.174 82.546C167.015 84.0647 166.925 85.6287 166.902 87.238C168.625 87.238 170.121 87.1587 171.39 87C171.526 87.0907 171.594 87.238 171.594 87.442C171.503 87.6233 171.424 87.8613 171.356 88.156C171.311 88.428 171.277 88.598 171.254 88.666L166.834 88.734V93.834C166.834 99.8633 166.97 102.889 167.242 102.912C168.171 103.003 169.373 103.048 170.846 103.048C170.937 103.229 170.982 103.411 170.982 103.592C170.982 103.751 170.937 103.921 170.846 104.102ZM190.619 95.704C190.619 100.736 187.695 103.728 181.847 104.68C179.444 104.68 177.416 103.83 175.761 102.13C174.129 100.407 173.313 98.2653 173.313 95.704C173.313 90.6267 176.248 87.6233 182.119 86.694C184.499 86.694 186.505 87.5667 188.137 89.312C189.792 91.0573 190.619 93.188 190.619 95.704ZM182.595 103.218C185.859 103.218 187.491 101.133 187.491 96.962C187.491 94.6047 186.947 92.542 185.859 90.774C184.771 89.006 183.332 88.122 181.541 88.122C179.75 88.122 178.447 88.7 177.631 89.856C176.838 90.9893 176.441 92.6213 176.441 94.752C176.441 96.86 176.996 98.798 178.107 100.566C179.218 102.334 180.714 103.218 182.595 103.218ZM210.641 95.704C210.641 100.736 207.717 103.728 201.869 104.68C199.466 104.68 197.437 103.83 195.783 102.13C194.151 100.407 193.335 98.2653 193.335 95.704C193.335 90.6267 196.27 87.6233 202.141 86.694C204.521 86.694 206.527 87.5667 208.159 89.312C209.813 91.0573 210.641 93.188 210.641 95.704ZM202.617 103.218C205.881 103.218 207.513 101.133 207.513 96.962C207.513 94.6047 206.969 92.542 205.881 90.774C204.793 89.006 203.353 88.122 201.563 88.122C199.772 88.122 198.469 88.7 197.653 89.856C196.859 90.9893 196.463 92.6213 196.463 94.752C196.463 96.86 197.018 98.798 198.129 100.566C199.239 102.334 200.735 103.218 202.617 103.218ZM228.826 95.534C228.826 98.5487 228.883 100.328 228.996 100.872C229.177 101.892 229.642 102.402 230.39 102.402C230.662 102.402 231.07 102.391 231.614 102.368C231.705 102.527 231.75 102.719 231.75 102.946L231.716 103.286C230.175 103.558 229.041 103.932 228.316 104.408L227.908 104.68C227.568 104.68 227.171 104.363 226.718 103.728C226.265 103.093 226.038 102.379 226.038 101.586C224.27 102.719 222.162 103.751 219.714 104.68C218.059 104.34 216.586 103.32 215.294 101.62C214.002 99.8973 213.356 97.914 213.356 95.67C213.356 94.2193 213.639 92.9273 214.206 91.794C214.773 90.638 215.441 89.7653 216.212 89.176C216.983 88.564 217.821 88.054 218.728 87.646C220.133 87.0113 221.278 86.694 222.162 86.694C222.253 86.694 223.567 86.8753 226.106 87.238V81.05C226.106 78.9873 225.868 77.7293 225.392 77.276C225.143 77.0267 224.814 76.8793 224.406 76.834L223.182 76.698C223.091 76.5167 223.046 76.3807 223.046 76.29L223.182 75.848C224.157 75.6667 225.097 75.4287 226.004 75.134C226.911 74.794 227.897 74.2727 228.962 73.57C229.234 73.57 229.415 73.6833 229.506 73.91C229.053 75.6327 228.826 82.8407 228.826 95.534ZM216.212 94.378C216.212 96.4407 216.733 98.2767 217.776 99.886C218.841 101.473 220.02 102.266 221.312 102.266C222.627 102.266 224.225 101.563 226.106 100.158V90.4C226.106 89.7653 225.335 89.2327 223.794 88.802C222.253 88.3487 221.176 88.122 220.564 88.122C219.612 88.122 218.649 88.7793 217.674 90.094C216.699 91.386 216.212 92.814 216.212 94.378Z" fill="#F2F2F2"/>
<path d="M109.288 48.016L124.84 47.632C125.48 47.632 127.112 49.392 129.736 52.912C132.424 56.432 135.432 61.2 138.76 67.216C142.152 73.168 144.744 78.832 146.536 84.208C147.496 82.544 148.936 80.08 150.856 76.816C152.776 73.488 154.216 70.96 155.176 69.232C156.2 67.44 157.352 65.328 158.632 62.896C161 58.544 162.504 54.896 163.144 51.952C161.8 51.696 159.208 51.568 155.368 51.568C155.176 51.12 155.08 50.608 155.08 50.032C155.08 49.456 155.176 48.976 155.368 48.592C159.592 48.784 163.656 48.88 167.56 48.88C171.464 48.88 174.888 48.624 177.832 48.112C178.216 48.752 178.408 49.296 178.408 49.744L178.216 50.512C176.488 51.024 174.504 52.112 172.264 53.776C169.384 55.824 165.096 61.232 159.4 70C153.704 78.768 150.44 84.752 149.608 87.952C149.096 89.296 148.84 93.008 148.84 99.088C148.84 105.104 149.16 110.288 149.8 114.64C152.424 115.088 156.104 115.312 160.84 115.312C161.032 115.76 161.128 116.272 161.128 116.848L160.84 118.288L145.576 118C138.152 118 132.008 118.256 127.144 118.768C126.824 118.384 126.664 117.84 126.664 117.136L126.76 116.368C132.904 115.408 136.648 113.968 137.992 112.048C139.336 110.128 140.008 106.512 140.008 101.2C140.008 95.888 139.56 91.504 138.664 88.048C137.768 84.528 135.144 79.12 130.792 71.824C126.504 64.528 122.6 58.96 119.08 55.12C117.672 53.52 116.328 52.464 115.048 51.952C113.832 51.376 111.912 51.024 109.288 50.896C109.096 50.512 109 50 109 49.36C109 48.656 109.096 48.208 109.288 48.016Z" fill="#E9EBFF"/>
<path d="M80.5812 115.582C81.4606 111.788 85.0015 109.361 85.0015 109.361C85.0015 109.361 87.1166 113.085 86.2372 116.879C85.3578 120.673 81.8169 123.1 81.8169 123.1C81.8169 123.1 79.7018 119.376 80.5812 115.582Z" fill="#FF6584"/>
<path d="M64.2652 132.064C66.7604 129.074 66.3456 124.964 66.3456 124.964C66.3456 124.964 61.8852 125.701 59.39 128.691C56.8948 131.681 57.3096 135.791 57.3096 135.791C57.3096 135.791 61.77 135.053 64.2652 132.064Z" fill="#FF6584"/>
<path d="M62.0488 131.527C62.4794 127.64 65.686 124.826 65.686 124.826C65.686 124.826 68.1944 128.315 67.7638 132.203C67.3331 136.09 64.1265 138.904 64.1265 138.904C64.1265 138.904 61.6181 135.415 62.0488 131.527Z" fill="#3F3D56"/>
<path d="M65.8197 118.036C69.5525 119.209 73.4203 117.411 73.4203 117.411C73.4203 117.411 71.236 113.711 67.5032 112.538C63.7704 111.365 59.9026 113.162 59.9026 113.162C59.9026 113.162 62.0868 116.862 65.8197 118.036Z" fill="#3F3D56"/>
<path d="M125.857 117.834C124.13 118.57 122.228 118.772 120.392 118.414C117.73 117.851 115.578 116.046 113.497 114.299C113.118 113.982 112.741 113.665 112.362 113.357C110.835 112.085 109.178 110.98 107.42 110.061C100.854 106.718 92.2445 106.878 84.3894 110.49C78.1316 113.368 72.1394 118.36 66.0702 125.753L65.8013 125.528C71.9052 118.093 77.9384 113.069 84.2457 110.168C92.1964 106.512 100.919 106.354 107.579 109.745C109.359 110.676 111.036 111.794 112.582 113.081C112.962 113.39 113.341 113.708 113.721 114.027C115.77 115.746 117.888 117.523 120.465 118.068C122.232 118.412 124.063 118.216 125.725 117.507L125.857 117.834Z" fill="#3F3D56"/>
<path d="M62.3887 141.93C62.762 140.137 61.6105 138.38 59.8166 138.007C58.0228 137.633 56.266 138.785 55.8927 140.579C55.5194 142.372 56.671 144.129 58.4648 144.503C60.2586 144.876 62.0154 143.724 62.3887 141.93Z" fill="#3F3D56"/>
<path d="M26.7954 105.357C26.0883 109.186 28.3671 112.824 28.3671 112.824C28.3671 112.824 31.7924 110.253 32.4995 106.423C33.2067 102.593 30.9278 98.9554 30.9278 98.9554C30.9278 98.9554 27.5025 101.527 26.7954 105.357Z" fill="#FF6584"/>
<path d="M18.4094 83.7343C19.5048 87.4714 17.4848 91.0748 17.4848 91.0748C17.4848 91.0748 13.6888 88.6193 12.5934 84.8823C11.4981 81.1453 13.5181 77.5418 13.5181 77.5418C13.5181 77.5418 17.314 79.9973 18.4094 83.7343Z" fill="#FF6584"/>
<path d="M16.163 83.3417C15.0072 87.0781 16.8251 90.9375 16.8251 90.9375C16.8251 90.9375 20.5171 88.7389 21.6729 85.0024C22.8288 81.266 21.0108 77.4067 21.0108 77.4067C21.0108 77.4067 17.3189 79.6053 16.163 83.3417Z" fill="#3F3D56"/>
<path d="M14.239 97.2179C18.13 97.6311 20.9595 100.823 20.9595 100.823C20.9595 100.823 17.4806 103.344 13.5896 102.931C9.69869 102.517 6.86915 99.326 6.86915 99.326C6.86915 99.326 10.3481 96.8046 14.239 97.2179Z" fill="#3F3D56"/>
<path d="M33.2615 120.381C36.8078 119.078 40.5726 120.564 40.5726 120.564C40.5726 120.564 38.5877 124.162 35.0414 125.465C31.4951 126.768 27.7303 125.283 27.7303 125.283C27.7303 125.283 29.7152 121.684 33.2615 120.381Z" fill="#3F3D56"/>
<path d="M69.212 121.354L68.9604 121.601C67.7195 120.287 66.1184 119.378 64.3607 118.988C61.7807 118.459 59.1295 119.244 56.5655 120.003C56.0896 120.144 55.6152 120.284 55.1429 120.416C53.2115 120.979 51.2277 121.336 49.2243 121.479C41.7648 121.932 33.8294 118.307 27.9971 111.783C23.3704 106.607 19.8424 99.593 17.2114 90.3398L17.5478 90.2407C20.1637 99.4413 23.6669 106.41 28.2573 111.545C34.0194 117.991 41.8503 121.572 49.2049 121.126C51.1839 120.984 53.1435 120.632 55.0512 120.075C55.5218 119.944 55.9944 119.804 56.4686 119.663C59.0735 118.893 61.767 118.095 64.4317 118.641C66.2582 119.045 67.9221 119.989 69.212 121.354V121.354Z" fill="#3F3D56"/>
<path d="M20.6251 73.9378C20.9984 72.144 19.8468 70.3872 18.053 70.0139C16.2591 69.6406 14.5023 70.7921 14.129 72.586C13.7557 74.3798 14.9073 76.1366 16.7011 76.5099C18.495 76.8832 20.2518 75.7316 20.6251 73.9378Z" fill="#3F3D56"/>
<path d="M188.393 13.4773C189.005 16.9137 192.124 18.8532 192.124 18.8532C192.124 18.8532 194.251 15.2212 193.638 11.7848C193.026 8.34836 189.907 6.40881 189.907 6.40881C189.907 6.40881 187.78 10.0408 188.393 13.4773Z" fill="#FF6584"/>
<path d="M189.816 12.025C192.4 14.5463 192.361 18.6578 192.361 18.6578C192.361 18.6578 188.132 18.6816 185.548 16.1603C182.964 13.639 183.003 9.52749 183.003 9.52749C183.003 9.52749 187.232 9.50376 189.816 12.025Z" fill="#3F3D56"/>
<path d="M197.655 23.4068C194.676 25.4384 193.646 29.1397 193.646 29.1397C193.646 29.1397 197.445 29.5471 200.424 27.5155C203.402 25.4839 204.432 21.7826 204.432 21.7826C204.432 21.7826 200.633 21.3752 197.655 23.4068Z" fill="#3F3D56"/>
<path d="M191.797 50.7167C188.263 51.2102 185.763 54.1161 185.763 54.1161C185.763 54.1161 188.995 56.222 192.529 55.7285C196.064 55.2351 198.564 52.3291 198.564 52.3291C198.564 52.3291 195.332 50.2232 191.797 50.7167Z" fill="#3F3D56"/>
<path d="M162.75 67.0901L163.063 67.1831C163.511 65.5718 164.429 64.135 165.7 63.0552C167.583 61.5059 170.092 60.999 172.518 60.5089C172.969 60.4179 173.418 60.3272 173.861 60.2303C175.685 59.8545 177.463 59.2868 179.165 58.5366C185.466 55.6758 190.396 49.2759 192.354 41.4169C193.906 35.1825 193.766 27.921 191.925 19.2176L191.607 19.2823C193.437 27.9361 193.578 35.1497 192.038 41.3353C190.104 49.0996 185.241 55.419 179.028 58.2396C177.347 58.9804 175.591 59.541 173.789 59.9121C173.347 60.0085 172.9 60.0988 172.451 60.1895C169.986 60.6875 167.437 61.2024 165.492 62.8027C164.171 63.9239 163.217 65.4162 162.75 67.0901V67.0901Z" fill="#3F3D56"/>
<path d="M181.624 6.77447C180.568 5.49816 180.919 3.46429 182.408 2.23171C183.897 0.999116 185.96 1.03456 187.017 2.31087C188.073 3.58717 187.723 5.62104 186.234 6.85363C184.745 8.08622 182.681 8.05077 181.624 6.77447Z" fill="#3F3D56"/>
</svg>
